<svg width="29" height="25" viewBox="0 0 29 25" fill="none" xmlns="http://www.w3.org/2000/svg">
<path d="M26.9531 3.125H21.875V1.17188C21.875 0.522461 21.3525 0 20.7031 0H7.42188C6.77246 0 6.25 0.522461 6.25 1.17188V3.125H1.17188C0.522461 3.125 0 3.64746 0 4.29688V7.03125C0 8.77441 1.09863 10.5664 3.02246 11.9482C4.56055 13.0566 6.43066 13.7598 8.39355 13.9844C9.92676 16.5283 11.7188 17.5781 11.7188 17.5781V21.0938H9.375C7.65137 21.0938 6.25 22.1045 6.25 23.8281V24.4141C6.25 24.7363 6.51367 25 6.83594 25H21.2891C21.6113 25 21.875 24.7363 21.875 24.4141V23.8281C21.875 22.1045 20.4736 21.0938 18.75 21.0938H16.4062V17.5781C16.4062 17.5781 18.1982 16.5283 19.7314 13.9844C21.6992 13.7598 23.5693 13.0566 25.1025 11.9482C27.0215 10.5664 28.125 8.77441 28.125 7.03125V4.29688C28.125 3.64746 27.6025 3.125 26.9531 3.125ZM4.84863 9.41406C3.65723 8.55469 3.125 7.59766 3.125 7.03125V6.25H6.25977C6.30859 7.8418 6.54297 9.23828 6.88477 10.459C6.14746 10.2051 5.45898 9.85352 4.84863 9.41406ZM25 7.03125C25 7.81738 24.1357 8.79395 23.2764 9.41406C22.666 9.85352 21.9727 10.2051 21.2354 10.459C21.5771 9.23828 21.8115 7.8418 21.8604 6.25H25V7.03125Z" fill="#212121"/>
</svg>
