<svg width="25" height="25" viewBox="0 0 25 25" fill="none" xmlns="http://www.w3.org/2000/svg">
<path d="M25.0002 0C22.4719 0.173828 4.70923 1.86523 3.46753 14.0435C3.31665 15.3452 3.2312 16.6528 3.17505 17.9614L11.9089 9.23633C12.2141 8.93115 12.7097 8.93115 13.0149 9.23633C13.3201 9.5415 13.3201 10.0361 13.0149 10.3413L0.343994 22.9995C-0.114014 23.457 -0.114014 24.1992 0.343994 24.6567C0.802002 25.1143 1.54468 25.1143 2.00317 24.6567L4.79272 21.8701C6.8479 21.8633 8.90161 21.7466 10.9431 21.5107C13.5544 21.2451 15.6804 20.2183 17.4167 18.75H12.4875L19.655 16.3633C20.2043 15.6362 20.6985 14.8638 21.1418 14.0625H17.1799L22.3821 11.4644C24.4285 6.4873 24.9119 1.28223 25.0002 0Z" fill="#212121"/>
</svg>
