<svg width="16" height="25" viewBox="0 0 16 25" fill="none" xmlns="http://www.w3.org/2000/svg">
<g clip-path="url(#clip0)">
<path d="M13.5227 0H2.38636C1.06889 0 0 1.0498 0 2.34375V22.6562C0 23.9502 1.06889 25 2.38636 25H13.5227C14.8402 25 15.9091 23.9502 15.9091 22.6562V2.34375C15.9091 1.0498 14.8402 0 13.5227 0ZM7.95455 23.4375C7.07457 23.4375 6.36364 22.7393 6.36364 21.875C6.36364 21.0107 7.07457 20.3125 7.95455 20.3125C8.83452 20.3125 9.54545 21.0107 9.54545 21.875C9.54545 22.7393 8.83452 23.4375 7.95455 23.4375ZM13.5227 18.1641C13.5227 18.4863 13.2543 18.75 12.9261 18.75H2.98295C2.65483 18.75 2.38636 18.4863 2.38636 18.1641V2.92969C2.38636 2.60742 2.65483 2.34375 2.98295 2.34375H12.9261C13.2543 2.34375 13.5227 2.60742 13.5227 2.92969V18.1641Z" fill="#212121"/>
</g>
<defs>
<clipPath id="clip0">
<rect width="15.9091" height="25" fill="white"/>
</clipPath>
</defs>
</svg>
