<svg width="169" height="40" viewBox="0 0 169 40" fill="none" xmlns="http://www.w3.org/2000/svg">
<path d="M20 0L10.9677 9.03226C10.3763 8.8172 9.78495 8.65591 9.13978 8.44086C9.13978 8.44086 9.35484 8.97849 9.94624 10.0538L0 20L20 40L40 20L20 0ZM11.3978 27.7957C10.9677 27.4194 10.0538 25.5376 10.6452 24.5699C11.1828 23.6021 11.8817 23.172 12.7957 23.0645C12.7957 23.0645 13.2258 24.2473 13.2258 24.9462C13.2258 25.6452 13.2796 26.4516 13.8172 27.3118C14.3548 28.172 14.5699 29.1935 14.5699 29.4624H11.8817C11.8817 29.1935 11.7742 28.1183 11.3978 27.7957ZM15.0538 22.5269C15.0538 22.5269 15.7527 22.1505 16.6667 22.2581C17.5806 22.3656 19.5161 22.4194 20.1613 21.9892C20.1613 21.9892 20.5914 23.3871 21.129 23.9785C21.6667 24.5699 21.828 25.6452 21.9892 26.5054C22.1505 27.3118 22.7419 28.6021 22.8495 29.5699H15.914C15.914 29.4624 15.7527 28.7634 15 27.9032C14.1935 26.9355 13.871 26.0215 14.086 25.2688C14.3548 24.4086 15.2151 24.3548 15.0538 22.5269ZM24.3548 29.4624C24.2473 29.1398 23.871 28.3871 23.3333 27.6344C22.6344 26.6667 22.5806 25.6989 22.5806 24.9462C22.5806 24.1935 22.5806 22.5269 22.5806 22.5269C22.5806 22.5269 23.4409 22.5806 23.9785 22.3118C24.5161 22.043 25.1075 21.3441 26.2366 21.2366C27.3656 21.129 27.957 21.9355 28.1183 22.2043C28.2796 22.4731 29.8925 24.086 29.8925 24.086H30.8602C30.8602 24.086 30.914 23.3871 30.4301 23.0645C29.8925 22.6882 28.9785 22.043 28.7097 21.6667C28.4409 21.2903 27.7419 20.0538 26.3441 20.4301C24.9462 20.8064 23.6559 20.8602 23.6559 20.8602C23.6559 20.8602 23.7634 18.7634 23.5484 18.172C23.3333 17.5269 23.3333 16.7742 23.8172 16.3978C23.8172 16.3978 24.5161 16.129 24.3548 16.8817C24.1935 17.6344 23.9247 18.4946 24.4624 18.871C24.4624 18.871 24.6237 19.0323 24.8925 19.1398C25.1075 19.1935 25.5914 19.3548 25.6452 18.9247C25.6989 18.4946 25.914 17.957 26.2366 17.5806C26.5591 17.2043 27.4731 16.5591 27.6882 16.0753C27.9032 15.5914 28.3333 15.2688 28.6559 15C28.9785 14.7849 28.9785 14.3011 28.9785 14.3011C28.9785 14.3011 28.7634 14.086 28.5484 13.8172C28.3333 13.5484 27.5269 12.7419 26.9355 12.2581C26.3441 11.7742 24.4086 11.0215 23.0645 12.2581C22.1505 13.0645 21.129 14.7849 20.6989 15.8602C20.6989 15.8602 20.6452 16.828 19.9462 16.828C19.2473 16.828 19.0323 16.2903 19.2473 15.7527C19.4624 15.1613 22.1505 12.3118 22.4731 11.2903C22.7957 10.3226 24.2473 7.74194 24.4624 5.69892L38.9785 20.2151L29.5161 29.4624H24.3548ZM20 0.967742L24.3548 5.32258C23.4946 5.80645 19.0323 8.3871 17.5806 13.3333C17.5806 13.3333 16.2903 11.0215 11.7204 9.24731L20 0.967742ZM10.3226 10.6452C11.2366 12.043 12.6882 14.0323 15.0538 16.5054C15.0538 16.5054 12.4194 15.8602 11.2903 16.9892C11.2903 16.9892 10.8602 17.4731 10.3226 16.9892C9.83871 16.5054 8.54839 14.8925 7.63441 16.129C6.66667 17.3656 7.47312 18.0107 6.6129 18.6021C5.69892 19.2473 4.24731 20.2151 5 22.6344C5 22.6344 6.1828 21.9355 6.29032 21.1828C6.39785 20.4301 8.01075 20.7527 7.90322 20.1075C7.7957 19.4086 7.7957 16.828 10.0538 17.7957C10.0538 17.7957 9.24731 18.6021 9.35484 20.0538C9.51613 21.5054 10.1613 22.2043 9.83871 23.3333C9.51613 24.4624 9.24731 25.5376 9.94624 26.7204C10.6452 27.8495 10.6452 28.172 10.6989 28.7634V29.5161H10.4301L0.967742 20L10.3226 10.6452Z" fill="#FFC500"/>
<path d="M62.2043 27.6882H50.7527L48.5484 33.3871H43.2258L53.871 6.55916H59.1398L69.785 33.3871H64.3011L62.2043 27.6882ZM60.5914 23.3871L56.5054 12.6344L52.4194 23.3871H60.5914ZM77.742 28.8172H91.0753V33.4409H72.5807V6.55916H77.6882V28.8172H77.742ZM105.806 6.07529C110.806 6.07529 115 8.49464 117.312 12.2043L112.903 14.7312C111.398 12.3118 108.871 10.914 105.806 10.914C100.806 10.914 97.3118 14.8925 97.3118 20.0538C97.3118 25.2151 100.806 29.1936 105.806 29.1936C108.871 29.1936 111.344 27.742 112.903 25.3764L117.312 27.8495C115 31.6129 110.86 33.9785 105.806 33.9785C98.0645 34.1398 92.043 27.8495 92.1506 20.0538C92.043 12.0968 98.0645 5.914 105.806 6.07529ZM140.054 11.1291H126.29V17.6882H138.548V22.2581H126.29V28.8172H140.43V33.4409H121.237V6.55916H140.108V11.1291H140.054ZM161.022 27.6882H149.57L147.366 33.3871H142.043L152.688 6.55916H157.957L168.602 33.3871H163.118L161.022 27.6882ZM159.409 23.3871L155.323 12.6344L151.237 23.3871H159.409Z" fill="#FFC500"/>
</svg>
