<svg width="349" height="78" viewBox="0 0 349 78" fill="none" xmlns="http://www.w3.org/2000/svg">
<path d="M52.8289 60.4115H20.952L14.816 76.3387H0L29.6321 1.36081H44.2985L73.9305 76.3387H58.6655L52.8289 60.4115ZM48.3392 48.391L36.9653 18.3398L25.5913 48.391H48.3392ZM96.0798 63.5669H133.195V76.489H81.7127V1.36081H95.9301V63.5669H96.0798ZM174.201 0.00849952C188.119 0.00849952 199.792 6.77003 206.227 17.1377L193.955 24.1998C189.765 17.4382 182.731 13.5316 174.201 13.5316C160.283 13.5316 150.555 24.6505 150.555 39.0751C150.555 53.4997 160.283 64.6187 174.201 64.6187C182.731 64.6187 189.615 60.5618 193.955 53.9505L206.227 60.8623C199.792 71.3802 188.268 77.9915 174.201 77.9915C152.65 78.4423 135.888 60.8623 136.188 39.0751C135.888 16.8372 152.65 -0.442269 174.201 0.00849952ZM269.532 14.1326H231.22V32.4639H265.342V45.2356H231.22V63.5669H270.58V76.489H217.152V1.36081H269.682V14.1326H269.532ZM327.898 60.4115H296.021L289.885 76.3387H275.069L304.702 1.36081H319.368L349 76.3387H333.735L327.898 60.4115ZM323.409 48.391L312.035 18.3398L300.661 48.391H323.409Z" fill="#FFC500"/>
</svg>
