<svg width="111" height="30" viewBox="0 0 111 30"  xmlns="http://www.w3.org/2000/svg">
<path d="M20.9201 19.2366C20.892 19.3225 20.3865 21.126 19.1228 22.958C18.0557 24.5611 16.9605 26.1355 15.1913 26.1641C13.4783 26.1927 12.9167 25.1336 10.951 25.1336C8.98522 25.1336 8.36741 26.1355 6.71057 26.1927C5.02565 26.25 3.76196 24.4752 2.66676 22.8721C0.504446 19.6374 -1.20856 13.7118 1.09417 9.67557C2.18937 7.70038 4.21127 6.44084 6.37359 6.41221C8.05851 6.38359 9.60302 7.55725 10.6421 7.55725C11.653 7.55725 13.5626 6.12595 15.5564 6.35496C16.3989 6.38359 18.7578 6.69847 20.2742 8.95992C20.1619 9.0458 17.466 10.6489 17.4941 13.9695C17.5222 17.9198 20.892 19.2366 20.9201 19.2366ZM14.2366 4.20801C15.1352 3.0916 15.7249 1.5458 15.5564 0C14.2927 0.0572519 12.692 0.887405 11.7653 2.00382C10.951 2.9771 10.2208 4.55153 10.4174 6.04008C11.8496 6.15458 13.3379 5.2958 14.2366 4.20801ZM36.8426 12.3092H34.1748L29.8502 25.9924H32.0686L33.2762 21.9847H37.6289L38.8926 25.9924H41.1953L36.8426 12.3092ZM33.6693 20.2958L34.7926 16.7176C35.0734 15.5725 35.2981 14.7137 35.4385 14.1412H35.4666C35.8036 15.4866 36.0282 16.3454 36.1405 16.7176L37.2638 20.2958H33.6693ZM51.1363 17.2901C50.3781 16.374 49.4233 15.916 48.272 15.916C46.8117 15.916 45.7165 16.5172 45.0145 17.6908H44.9864L44.874 16.1164H42.9645C43.0206 17.2328 43.0487 18.3206 43.0487 19.3511V29.9714H45.211V24.8187H45.2391C45.8007 25.7634 46.6994 26.2214 47.9911 26.2214C49.1706 26.2214 50.1535 25.792 50.9678 24.9332C51.8665 23.9599 52.2877 22.6431 52.2877 20.9542C52.2877 19.437 51.9226 18.2347 51.1363 17.2901ZM49.4233 23.5305C48.974 24.1603 48.3281 24.4752 47.5418 24.4752C46.8398 24.4752 46.2781 24.2176 45.8569 23.7309C45.4357 23.2443 45.211 22.6431 45.211 21.9275V20.2958C45.211 20.124 45.2391 19.895 45.3233 19.6374C45.4638 19.0649 45.7446 18.5782 46.1658 18.2347C46.587 17.8912 47.0644 17.6908 47.598 17.6908C48.3843 17.6908 49.0021 18.0057 49.4795 18.6641C49.9007 19.2939 50.1254 20.0668 50.1254 21.0401C50.0973 22.0706 49.8726 22.9008 49.4233 23.5305ZM62.2849 17.2901C61.5267 16.374 60.5719 15.916 59.4205 15.916C57.9603 15.916 56.8651 16.5172 56.163 17.6908H56.1349L56.0226 16.1164H54.1411C54.1973 17.2328 54.2254 18.3206 54.2254 19.3511V29.9714H56.3877V24.8187H56.4157C56.9774 25.7634 57.876 26.2214 59.1678 26.2214C60.3472 26.2214 61.3301 25.792 62.1445 24.9332C63.0431 23.9599 63.4924 22.6431 63.4924 20.9542C63.4082 19.437 63.0431 18.2347 62.2849 17.2901ZM60.5438 23.5305C60.0945 24.1603 59.4767 24.4752 58.6623 24.4752C57.9603 24.4752 57.3986 24.2176 56.9774 23.7309C56.5562 23.2443 56.3315 22.6431 56.3315 21.9275V20.2958C56.3315 20.124 56.3596 19.895 56.4438 19.6374C56.5842 19.0649 56.8651 18.5782 57.2863 18.2347C57.7075 17.8912 58.1849 17.6908 58.7185 17.6908C59.5048 17.6908 60.1226 18.0057 60.6 18.6641C61.0212 19.2939 61.2459 20.0668 61.2459 21.0401C61.2178 22.0706 60.9931 22.9008 60.5438 23.5305ZM75.0341 19.7805C74.5006 19.1508 73.63 18.5782 72.4787 18.1202C71.5239 17.7481 70.878 17.376 70.541 17.0611C70.1198 16.7176 69.9232 16.2595 69.9232 15.7156C69.9232 15.229 70.0917 14.8282 70.4568 14.4847C70.878 14.1126 71.4677 13.9122 72.2259 13.9122C73.1807 13.9122 74.0513 14.1126 74.7814 14.542L75.315 12.7672C74.5006 12.3378 73.4896 12.1088 72.2821 12.1088C70.9061 12.1088 69.8109 12.4809 68.9965 13.1966C68.1821 13.9122 67.7609 14.8282 67.7609 15.9733C67.7609 17.6908 68.9403 19.0076 71.2711 19.895C72.1417 20.2099 72.7595 20.5821 73.1245 20.9542C73.4896 21.3263 73.6862 21.813 73.6862 22.3569C73.6862 22.9866 73.4615 23.4733 73.0122 23.8454C72.5629 24.2176 71.917 24.4179 71.1307 24.4179C70.0075 24.4179 68.9684 24.1317 68.0136 23.5305L67.5081 25.3626C68.3787 25.9351 69.5301 26.2214 70.9903 26.2214C72.5629 26.2214 73.7704 25.8206 74.641 25.0191C75.4273 24.2748 75.8204 23.3302 75.8204 22.1851C75.8485 21.2118 75.5958 20.4103 75.0341 19.7805ZM82.9533 16.1164H80.5944V13.6546L78.4882 14.313V16.1164H77.0841V17.7481H78.4882V22.729C78.4882 23.9599 78.741 24.8473 79.2184 25.3912C79.6957 25.9065 80.3697 26.1927 81.2122 26.1927C81.9142 26.1927 82.4478 26.1069 82.8971 25.9637L82.8409 24.3034C82.5882 24.3607 82.2793 24.4179 81.8861 24.4179C81.0437 24.4179 80.6225 23.8168 80.6225 22.5859V17.7767H82.9813V16.1164H82.9533ZM92.4169 17.376C91.5464 16.4027 90.4231 15.9447 88.9909 15.9447C87.5306 15.9447 86.3512 16.4313 85.4806 17.4046C84.6101 18.3779 84.1889 19.6374 84.1889 21.1546C84.1889 22.6145 84.6101 23.8168 85.4526 24.7901C86.295 25.7634 87.4183 26.2214 88.8505 26.2214C90.3108 26.2214 91.5183 25.7347 92.3888 24.7328C93.2313 23.7595 93.6525 22.5286 93.6525 21.0114C93.6525 19.4943 93.2313 18.292 92.4169 17.376ZM90.8162 23.416C90.3388 24.2176 89.721 24.6183 88.8786 24.6183C88.0361 24.6183 87.3902 24.2176 86.9409 23.4447C86.5478 22.7863 86.3512 22.0134 86.3512 21.0973C86.3512 20.1527 86.5478 19.3798 86.9409 18.7214C87.3902 17.9485 88.0361 17.5477 88.9067 17.5477C89.7491 17.5477 90.395 17.9485 90.8443 18.7214C91.2375 19.3798 91.434 20.1527 91.434 21.0687C91.434 21.9561 91.2375 22.729 90.8162 23.416ZM100.645 15.9733C100.476 15.9447 100.308 15.9447 100.111 15.9447C99.5497 15.9447 99.0443 16.1164 98.5669 16.4599C98.0895 16.8607 97.7244 17.376 97.4998 18.0344H97.4436L97.3593 16.145H95.4778C95.534 17.0897 95.5621 18.1202 95.5621 19.2366L95.534 25.9924H97.6682V20.8111C97.6682 20.0382 97.8367 19.3798 98.2018 18.8645C98.623 18.292 99.1847 17.9771 99.9429 17.9771C100.168 17.9771 100.42 18.0057 100.617 18.0344V15.9733H100.645ZM109.407 17.4905C108.676 16.4313 107.637 15.916 106.233 15.916C104.801 15.916 103.678 16.4313 102.863 17.4905C102.077 18.4637 101.656 19.7233 101.656 21.2118C101.656 22.729 102.077 23.9313 102.948 24.8473C103.818 25.7347 104.97 26.1927 106.486 26.1927C107.722 26.1927 108.817 25.9924 109.715 25.5916L109.378 24.0744C108.592 24.3893 107.722 24.5324 106.767 24.5324C105.896 24.5324 105.194 24.3034 104.661 23.8454C104.071 23.3302 103.762 22.5859 103.734 21.6126H110.193C110.249 21.355 110.277 21.0114 110.277 20.6107C110.249 19.3511 109.968 18.3206 109.407 17.4905ZM103.734 20.0095C103.79 19.3511 104.015 18.7786 104.38 18.292C104.829 17.6908 105.391 17.4046 106.093 17.4046C106.851 17.4046 107.441 17.7195 107.806 18.3206C108.087 18.8073 108.227 19.3511 108.227 20.0095H103.734ZM35.5508 1.40267C34.9611 0.887405 34.0905 0.629771 32.9392 0.629771C32.2933 0.629771 31.6755 0.687023 31.1139 0.772901V7.3855C31.5351 7.44275 32.0686 7.47137 32.6584 7.47137C33.8659 7.47137 34.7926 7.18511 35.4666 6.6126C36.1686 6.01145 36.5337 5.09542 36.5337 3.89313C36.5618 2.83397 36.2248 2.00382 35.5508 1.40267ZM34.7645 5.92557C34.3152 6.38359 33.6974 6.6126 32.883 6.6126C32.546 6.6126 32.2933 6.6126 32.181 6.58397V1.57443C32.4056 1.51718 32.6864 1.51718 33.0234 1.51718C33.8097 1.51718 34.3994 1.71756 34.8207 2.14695C35.2419 2.57634 35.4385 3.17748 35.4385 3.95038C35.4385 4.80916 35.2138 5.46756 34.7645 5.92557ZM41.8412 3.17748C41.42 2.71947 40.8583 2.46183 40.1563 2.46183C39.4261 2.46183 38.8645 2.69084 38.4433 3.17748C38.022 3.66412 37.7974 4.26527 37.7974 5.00954C37.7974 5.72519 37.9939 6.32634 38.4152 6.78435C38.8364 7.24237 39.398 7.5 40.072 7.5C40.8021 7.5 41.3638 7.24237 41.8131 6.75572C42.2343 6.26908 42.4309 5.66794 42.4309 4.92366C42.459 4.23664 42.2624 3.6355 41.8412 3.17748ZM41.0549 6.15458C40.8302 6.55534 40.5213 6.75572 40.1001 6.75572C39.6789 6.75572 39.37 6.55534 39.1453 6.18321C38.9487 5.86832 38.8645 5.46756 38.8645 5.03817C38.8645 4.58015 38.9487 4.17939 39.1453 3.8645C39.37 3.46374 39.6789 3.29198 40.1001 3.29198C40.5213 3.29198 40.8302 3.49237 41.0549 3.8645C41.2515 4.17939 41.3357 4.58015 41.3357 5.00954C41.3638 5.43893 41.2515 5.81107 41.0549 6.15458ZM49.3391 2.57634L48.7494 4.83779C48.609 5.41031 48.4966 5.92557 48.4124 6.44084H48.3843C48.3 5.92557 48.1596 5.41031 47.9911 4.83779L47.3733 2.57634H46.5028L45.8288 4.89504C45.6323 5.52481 45.5199 6.04008 45.4357 6.44084H45.4076C45.3234 5.9542 45.211 5.43893 45.0987 4.89504L44.5651 2.60496H43.4699L44.874 7.44275H45.8569L46.5028 5.35305C46.6713 4.83779 46.7836 4.32252 46.8959 3.77863H46.924C47.0364 4.29389 47.1487 4.80916 47.3172 5.35305L47.935 7.44275H48.8898L50.3781 2.57634H49.3391ZM55.8541 4.5229C55.8541 3.80725 55.6856 3.26336 55.3206 2.91985C55.0397 2.63359 54.6466 2.49046 54.2254 2.49046C53.8603 2.49046 53.5514 2.57634 53.2706 2.74809C53.0178 2.89122 52.8493 3.0916 52.737 3.32061H52.7089L52.6247 2.57634H51.698C51.7261 3.06298 51.7261 3.54962 51.7261 3.95038V7.41412H52.7932V4.55153C52.7932 4.23664 52.9055 3.95038 53.074 3.72137C53.2706 3.49237 53.5233 3.37786 53.8322 3.37786C54.4781 3.37786 54.787 3.80725 54.787 4.66603V7.44275H55.8541V4.5229ZM58.7746 0.343511H57.7075V7.41412H58.7746V0.343511ZM64.391 3.17748C63.9698 2.71947 63.4082 2.46183 62.7061 2.46183C61.976 2.46183 61.4143 2.69084 60.9931 3.17748C60.5719 3.66412 60.3472 4.26527 60.3472 5.00954C60.3472 5.72519 60.5438 6.32634 60.965 6.78435C61.3863 7.24237 61.9198 7.5 62.6219 7.5C63.352 7.5 63.9137 7.24237 64.363 6.75572C64.7842 6.26908 64.9808 5.66794 64.9808 4.92366C64.9808 4.23664 64.7842 3.6355 64.391 3.17748ZM63.6047 6.15458C63.3801 6.55534 63.0712 6.75572 62.65 6.75572C62.2287 6.75572 61.9198 6.55534 61.6952 6.18321C61.4986 5.86832 61.4143 5.46756 61.4143 5.03817C61.4143 4.58015 61.4986 4.17939 61.6952 3.8645C61.9198 3.46374 62.2287 3.29198 62.65 3.29198C63.0712 3.29198 63.3801 3.49237 63.6047 3.8645C63.8013 4.17939 63.8856 4.58015 63.8856 5.00954C63.8856 5.43893 63.8013 5.81107 63.6047 6.15458ZM70.0355 6.26908V4.49427C70.0355 3.14885 69.4177 2.49046 68.1821 2.49046C67.5362 2.49046 67.0027 2.63359 66.5534 2.91985L66.778 3.6355C67.1431 3.40649 67.5362 3.26336 68.0136 3.26336C68.6595 3.26336 68.9965 3.57824 68.9965 4.20801V4.29389C68.126 4.29389 67.4239 4.43702 66.9465 4.75191C66.4691 5.06679 66.2164 5.52481 66.2164 6.09733C66.2164 6.49809 66.3287 6.81298 66.5814 7.07061C66.8623 7.35687 67.2273 7.5 67.6766 7.5C68.2664 7.5 68.7438 7.27099 69.0527 6.8416H69.0807L69.165 7.3855H70.1198C70.0636 7.12786 70.0355 6.75572 70.0355 6.26908ZM68.9965 5.9542C68.9403 6.18321 68.828 6.38359 68.6314 6.52672C68.4349 6.66985 68.2102 6.75572 67.9855 6.75572C67.789 6.75572 67.5924 6.69847 67.4801 6.55534C67.3397 6.44084 67.2835 6.24046 67.2835 5.98282C67.2835 5.32443 67.8732 4.98092 69.0246 5.00954V5.75382C68.9965 5.81107 68.9965 5.89695 68.9965 5.9542ZM76.0732 6.09733V0.343511H75.0061V3.12023H74.978C74.7252 2.69084 74.2759 2.46183 73.63 2.46183C73.0403 2.46183 72.5629 2.69084 72.1698 3.14885C71.7485 3.6355 71.552 4.26527 71.552 5.06679C71.552 5.81107 71.7485 6.38359 72.1136 6.8416C72.4787 7.29962 72.9561 7.52863 73.5458 7.52863C74.2759 7.52863 74.7814 7.24237 75.0622 6.64122H75.0903L75.1465 7.41412H76.0732C76.0732 7.01336 76.0732 6.58397 76.0732 6.09733ZM74.6971 6.26908C74.5006 6.52672 74.2197 6.66985 73.8547 6.66985C73.4615 6.66985 73.1526 6.49809 72.928 6.18321C72.7033 5.89695 72.591 5.49618 72.591 5.00954C72.591 4.5229 72.7033 4.09351 72.928 3.77863C73.1526 3.46374 73.4615 3.29198 73.8547 3.29198C74.1355 3.29198 74.3602 3.37786 74.5567 3.54962C74.7533 3.72137 74.8656 3.95038 74.9499 4.20801C74.978 4.29389 74.978 4.4084 74.978 4.55153V5.35305C75.0061 5.72519 74.9218 6.01145 74.6971 6.26908ZM84.5259 3.17748C84.1046 2.71947 83.543 2.46183 82.8409 2.46183C82.1108 2.46183 81.5492 2.69084 81.1279 3.17748C80.7067 3.66412 80.482 4.26527 80.482 5.00954C80.482 5.72519 80.6786 6.32634 81.0998 6.78435C81.5211 7.24237 82.0827 7.5 82.7567 7.5C83.4868 7.5 84.0485 7.24237 84.4978 6.75572C84.919 6.26908 85.1156 5.66794 85.1156 4.92366C85.1437 4.23664 84.9471 3.6355 84.5259 3.17748ZM83.7676 6.15458C83.543 6.55534 83.2341 6.75572 82.8129 6.75572C82.3916 6.75572 82.0827 6.55534 81.8581 6.18321C81.6615 5.86832 81.5772 5.46756 81.5772 5.03817C81.5772 4.58015 81.6615 4.17939 81.8581 3.8645C82.0827 3.46374 82.3916 3.29198 82.8129 3.29198C83.2341 3.29198 83.543 3.49237 83.7676 3.8645C83.9642 4.17939 84.0485 4.58015 84.0485 5.00954C84.0485 5.43893 83.9361 5.81107 83.7676 6.15458ZM90.8162 4.5229C90.8162 3.80725 90.6477 3.26336 90.2827 2.91985C90.0018 2.63359 89.6087 2.49046 89.1875 2.49046C88.8224 2.49046 88.5135 2.57634 88.2327 2.74809C87.9799 2.89122 87.8114 3.0916 87.6991 3.32061H87.671L87.5868 2.57634H86.6601C86.6882 3.06298 86.6882 3.54962 86.6882 3.95038V7.41412H87.7553V4.55153C87.7553 4.23664 87.8676 3.95038 88.0361 3.72137C88.2046 3.49237 88.4854 3.37786 88.7943 3.37786C89.4402 3.37786 89.7491 3.80725 89.7491 4.66603V7.44275H90.8162V4.5229ZM97.921 2.57634H96.7696V1.37405L95.7306 1.68893V2.57634H95.0285V3.37786H95.7306V5.81107C95.7306 6.41221 95.8429 6.87023 96.0956 7.12786C96.3203 7.3855 96.6573 7.52863 97.0785 7.52863C97.4155 7.52863 97.6963 7.5 97.8929 7.41412L97.8648 6.58397C97.7525 6.6126 97.584 6.64122 97.3874 6.64122C96.9662 6.64122 96.7696 6.35496 96.7696 5.75382V3.40649H97.921V2.57634ZM103.537 4.5229C103.537 3.80725 103.369 3.26336 103.004 2.89122C102.723 2.60496 102.358 2.46183 101.909 2.46183C101.291 2.46183 100.813 2.71947 100.476 3.26336H100.448V0.343511H99.4093V7.41412H100.476V4.49427C100.476 4.35114 100.505 4.20801 100.533 4.09351C100.729 3.57824 101.038 3.34924 101.544 3.34924C102.189 3.34924 102.498 3.77863 102.498 4.66603V7.41412H103.565V4.5229H103.537ZM108.873 3.23473C108.536 2.71947 108.002 2.46183 107.328 2.46183C106.626 2.46183 106.065 2.71947 105.672 3.23473C105.278 3.72137 105.082 4.32252 105.082 5.06679C105.082 5.81107 105.278 6.41221 105.7 6.8416C106.121 7.27099 106.711 7.5 107.441 7.5C108.059 7.5 108.592 7.41412 109.041 7.21374L108.873 6.46947C108.48 6.6126 108.059 6.69847 107.581 6.69847C107.16 6.69847 106.823 6.58397 106.542 6.35496C106.261 6.09733 106.093 5.72519 106.093 5.26718H109.266C109.294 5.12405 109.294 4.98092 109.294 4.78053C109.294 4.15076 109.154 3.66412 108.873 3.23473ZM106.093 4.49427C106.121 4.17939 106.233 3.89313 106.402 3.66412C106.626 3.37786 106.907 3.23473 107.244 3.23473C107.609 3.23473 107.89 3.37786 108.087 3.69275C108.227 3.92176 108.311 4.20801 108.283 4.5229H106.093V4.49427Z" fill="currentColor"/>
</svg>
