<svg width="137" height="188" viewBox="0 0 137 188" fill="none" xmlns="http://www.w3.org/2000/svg">
<path d="M31.6571 125.181C29.5692 127.269 27.2556 128.717 24.7163 129.526C22.1581 130.316 19.6188 130.41 17.0982 129.808C14.5777 129.168 12.3205 127.852 10.3267 125.858C8.33281 123.864 7.02551 121.616 6.40479 119.115C5.78406 116.575 5.87811 114.036 6.68694 111.497C7.47695 108.938 8.91591 106.615 11.0038 104.527C12.9224 102.609 14.9727 101.236 17.1547 100.408C19.3366 99.5804 21.5562 99.3171 23.8134 99.618L23.362 107.575C20.5969 107.255 18.3867 107.923 16.7314 109.578C15.3395 110.97 14.6718 112.54 14.7282 114.29C14.7658 116.02 15.537 117.638 17.0418 119.143C18.5466 120.648 20.1737 121.428 21.923 121.485C23.6535 121.522 25.2147 120.845 26.6067 119.453C28.2619 117.798 28.9297 115.588 28.6099 112.823L36.5665 112.371C36.8675 114.628 36.6042 116.848 35.7765 119.03C34.9489 121.212 33.5758 123.262 31.6571 125.181Z" fill="#FF5146"/>
<path d="M52.3808 104.457C50.2552 106.583 47.904 108.05 45.327 108.859C42.7501 109.667 40.2013 109.771 37.6808 109.169C35.1415 108.548 32.8843 107.25 30.9092 105.275C28.9342 103.3 27.6457 101.053 27.0438 98.532C26.423 95.9926 26.5171 93.4345 27.3259 90.8575C28.1348 88.2806 29.6019 85.9293 31.7275 83.8038C33.853 81.6783 36.2042 80.2111 38.7812 79.4023C41.3581 78.5934 43.9163 78.4994 46.4556 79.1201C48.9762 79.722 51.224 81.0105 53.199 82.9856C55.174 84.9606 56.4719 87.2178 57.0927 89.7571C57.6946 92.2777 57.5911 94.8264 56.7823 97.4034C55.9735 99.9804 54.5063 102.332 52.3808 104.457ZM46.9917 99.0681C47.8194 98.2404 48.3648 97.2999 48.6282 96.2466C48.8915 95.1556 48.8539 94.0458 48.5153 92.9172C48.1579 91.7698 47.4808 90.6976 46.4839 89.7007C45.4869 88.7038 44.4242 88.036 43.2956 87.6975C42.1482 87.3401 41.0384 87.3024 39.9662 87.5846C38.894 87.8291 37.9441 88.3652 37.1165 89.1928C36.2889 90.0205 35.7434 90.9798 35.48 92.0708C35.2167 93.1241 35.2637 94.2245 35.6211 95.3719C35.9597 96.5005 36.6274 97.5633 37.6244 98.5602C38.6213 99.5571 39.6935 100.234 40.8409 100.592C41.9695 100.93 43.0698 100.977 44.142 100.733C45.2142 100.451 46.1641 99.8957 46.9917 99.0681Z" fill="#FF5146"/>
<path d="M83.1253 72.8097L74.0683 63.8656L77.0027 75.3772L74.0683 78.3116L62.867 75.6876L71.5572 84.3778L65.491 90.444L45.7406 70.6936L51.2143 65.2199L68.1714 69.311L63.911 52.5232L69.3847 47.0495L89.1915 66.7435L83.1253 72.8097Z" fill="#FF5146"/>
<path d="M97.8846 37.3971C99.4834 36.6635 101.016 36.3908 102.484 36.5789C103.951 36.767 105.268 37.4441 106.434 38.6103C108.164 40.3409 108.794 42.4005 108.324 44.7894C107.835 47.1595 106.236 49.6988 103.528 52.4074L92.4109 63.5241L72.6605 43.7737L83.2128 33.2213C85.8462 30.5879 88.3009 29.0737 90.5769 28.6787C92.8717 28.2649 94.7998 28.8386 96.361 30.3998C97.2827 31.3215 97.8752 32.3842 98.1385 33.5881C98.4207 34.7731 98.336 36.0428 97.8846 37.3971ZM83.8618 41.8833L86.7961 44.8176L89.8998 41.714C91.3481 40.2656 91.5833 39.0524 90.6051 38.0743C89.627 37.0961 88.4138 37.3313 86.9654 38.7796L83.8618 41.8833ZM98.3078 48.3163C99.775 46.8491 99.9913 45.5982 98.9568 44.5637C97.9222 43.5291 96.6714 43.7455 95.2042 45.2126L91.1977 49.2192L94.3013 52.3228L98.3078 48.3163Z" fill="#FF5146"/>
<path d="M125.04 31.7982C122.914 33.9237 120.563 35.3909 117.986 36.1997C115.409 37.0086 112.86 37.112 110.34 36.5101C107.8 35.8894 105.543 34.5915 103.568 32.6164C101.593 30.6414 100.305 28.3936 99.7027 25.8731C99.082 23.3337 99.176 20.7756 99.9848 18.1986C100.794 15.6217 102.261 13.2704 104.386 11.1449C106.512 9.01935 108.863 7.55218 111.44 6.74335C114.017 5.93453 116.575 5.84046 119.115 6.4612C121.635 7.06311 123.883 8.35159 125.858 10.3266C127.833 12.3017 129.131 14.5589 129.752 17.0982C130.354 19.6188 130.25 22.1675 129.441 24.7445C128.632 27.3214 127.165 29.6727 125.04 31.7982ZM119.651 26.4092C120.478 25.5815 121.024 24.641 121.287 23.5877C121.55 22.4967 121.513 21.3869 121.174 20.2583C120.817 19.1109 120.14 18.0387 119.143 17.0418C118.146 16.0449 117.083 15.3771 115.954 15.0385C114.807 14.6812 113.697 14.6435 112.625 14.9257C111.553 15.1702 110.603 15.7063 109.775 16.5339C108.948 17.3616 108.402 18.3209 108.139 19.4119C107.876 20.4652 107.923 21.5656 108.28 22.713C108.619 23.8416 109.286 24.9044 110.283 25.9013C111.28 26.8982 112.352 27.5754 113.5 27.9328C114.628 28.2713 115.729 28.3184 116.801 28.0738C117.873 27.7917 118.823 27.2368 119.651 26.4092Z" fill="#FF5146"/>
<path fill-rule="evenodd" clip-rule="evenodd" d="M33.1577 187.161V134.937L55.5397 112.555L77.9218 134.937V187.161H33.1577ZM55.5396 134.304C58.2866 134.304 60.5134 132.077 60.5134 129.33C60.5136 126.583 58.2867 124.356 55.5397 124.356C52.7928 124.356 50.5659 126.583 50.5659 129.33C50.5659 132.077 52.7928 134.304 55.5396 134.304ZM55.1093 153.8C55.725 153.184 56.0328 152.391 56.0328 151.419C56.0328 150.448 55.725 149.654 55.1093 149.038C54.4936 148.423 53.6471 148.115 52.5697 148.115C51.8474 148.115 51.2259 148.257 50.7049 148.541C50.184 148.825 49.7873 149.222 49.515 149.731C49.2427 150.229 49.1066 150.791 49.1066 151.419C49.1066 152.047 49.2427 152.616 49.515 153.125C49.7873 153.622 50.184 154.013 50.7049 154.298C51.2259 154.582 51.8474 154.724 52.5697 154.724C53.6471 154.724 54.4936 154.416 55.1093 153.8ZM49.2842 141.114V144.117L61.7158 152.61V149.607L49.2842 141.114ZM53.7596 150.868C53.9964 151.011 54.1148 151.194 54.1148 151.419C54.1148 151.644 53.9964 151.834 53.7596 151.988C53.5109 152.13 53.1143 152.201 52.5697 152.201C52.025 152.201 51.6343 152.13 51.3975 151.988C51.1489 151.834 51.0246 151.644 51.0246 151.419C51.0246 151.194 51.1489 151.011 51.3975 150.868C51.6343 150.715 52.025 150.638 52.5697 150.638C53.1143 150.638 53.5109 150.715 53.7596 150.868ZM60.9699 144.686C61.5856 144.07 61.8934 143.276 61.8934 142.305C61.8934 141.333 61.5856 140.54 60.9699 139.924C60.3543 139.308 59.5077 139 58.4303 139C57.7081 139 57.0865 139.142 56.5656 139.426C56.0446 139.711 55.648 140.107 55.3757 140.617C55.1034 141.114 54.9672 141.677 54.9672 142.305C54.9672 142.932 55.1034 143.501 55.3757 144.01C55.648 144.508 56.0446 144.899 56.5656 145.183C57.0865 145.467 57.7081 145.609 58.4303 145.609C59.5077 145.609 60.3543 145.301 60.9699 144.686ZM59.6202 141.754C59.857 141.896 59.9754 142.08 59.9754 142.305C59.9754 142.53 59.857 142.719 59.6202 142.873C59.3716 143.015 58.975 143.086 58.4303 143.086C57.8857 143.086 57.495 143.015 57.2582 142.873C57.0096 142.719 56.8852 142.53 56.8852 142.305C56.8852 142.08 57.0096 141.896 57.2582 141.754C57.495 141.6 57.8857 141.523 58.4303 141.523C58.975 141.523 59.3716 141.6 59.6202 141.754ZM62 161.162C62 162.264 61.7454 163.241 61.2363 164.094C60.7154 164.935 59.9695 165.598 58.9986 166.084C58.0159 166.558 56.8497 166.795 55.5 166.795C54.1503 166.795 52.99 166.558 52.0191 166.084C51.0364 165.598 50.2905 164.935 49.7814 164.094C49.2605 163.241 49 162.264 49 161.162C49 160.061 49.2605 159.09 49.7814 158.249C50.2905 157.396 51.0364 156.733 52.0191 156.259C52.99 155.773 54.1503 155.53 55.5 155.53C56.8497 155.53 58.0159 155.773 58.9986 156.259C59.9695 156.733 60.7154 157.396 61.2363 158.249C61.7454 159.09 62 160.061 62 161.162ZM58.6434 161.162C58.6434 160.215 57.5956 159.741 55.5 159.741C53.4044 159.741 52.3566 160.215 52.3566 161.162C52.3566 162.11 53.4044 162.584 55.5 162.584C57.5956 162.584 58.6434 162.11 58.6434 161.162ZM55.5 168.523C54.8725 169.032 54.4403 169.766 54.2036 170.726L51.8593 168.416H49.2842L49.2842 177.691H52.4454L52.4454 173.249L54.3101 175.079H56.8852V173.426C56.8852 172.443 57.1694 171.952 57.7377 171.952C58.0455 171.952 58.2823 172.1 58.4481 172.396C58.6138 172.692 58.6967 173.083 58.6967 173.569C58.6967 174.113 58.6198 174.682 58.4658 175.274C58.3119 175.855 58.087 176.399 57.791 176.909L60.8811 178.33C61.2482 177.679 61.5264 176.921 61.7158 176.056C61.9053 175.179 62 174.303 62 173.426C62 172.159 61.7987 171.099 61.3962 170.246C60.9936 169.393 60.4727 168.766 59.8333 168.363C59.1821 167.948 58.4836 167.741 57.7377 167.741C56.8616 167.741 56.1157 168.002 55.5 168.523ZM55.0738 178.67V184H58.0929V178.67H55.0738Z" fill="#FF5146"/>
<path fill-rule="evenodd" clip-rule="evenodd" d="M53.3238 97.2706C52.9304 97.5341 52.3757 98.0909 51.6591 99.1061C50.2569 101.093 49.6705 102.793 49.5698 104.251C49.4697 105.702 49.8437 107.015 50.5331 108.245C51.5919 110.135 53.3311 111.744 55.1247 113.239C55.2658 108.434 55.2598 103.335 54.6921 100.015C54.5276 99.0525 54.3256 98.3032 54.0969 97.7775C53.9836 97.5172 53.8766 97.3419 53.7874 97.2306C53.7251 97.1529 53.6821 97.1195 53.6634 97.1071C53.6181 97.1125 53.5134 97.1437 53.3238 97.2706ZM53.6909 97.1088C53.6904 97.1103 53.6822 97.111 53.668 97.1066C53.6844 97.1052 53.6915 97.1074 53.6909 97.1088ZM57.0267 99.6155C57.7387 103.78 57.6167 110.339 57.4098 115.717L57.3184 118.095L55.4766 116.588C55.2747 116.423 55.0653 116.253 54.8502 116.079C52.712 114.345 50.0083 112.154 48.467 109.403C47.596 107.849 47.0695 106.081 47.207 104.088C47.3441 102.102 48.1337 99.9935 49.7241 97.7403C50.5039 96.6357 51.2573 95.804 52.006 95.3027C52.7775 94.786 53.7073 94.5271 54.6269 94.9419C55.4482 95.3124 55.9469 96.0932 56.2686 96.8325C56.6057 97.6072 56.8474 98.567 57.0267 99.6155Z" fill="#FF5146"/>
</svg>
