<svg width="103" height="151" viewBox="0 0 103 151" fill="none" xmlns="http://www.w3.org/2000/svg">
<path d="M30.9106 93.0467C29.1881 94.7692 27.3171 96.2641 25.2976 97.5312C23.2781 98.7587 21.417 99.5705 19.7143 99.9665L16.8632 92.6013C18.4273 92.1855 20.0014 91.542 21.5853 90.6709C23.1494 89.7799 24.4957 88.7701 25.6243 87.6416C26.5944 86.6715 27.1983 85.8894 27.4359 85.2954C27.6537 84.6817 27.5745 84.1867 27.1983 83.8105C26.7627 83.3749 26.1589 83.3254 25.3867 83.662C24.6343 83.9788 23.5058 84.6322 22.0011 85.6221C20.0608 86.8892 18.3679 87.8693 16.9226 88.5623C15.4575 89.2354 13.8934 89.5324 12.2303 89.4532C10.5473 89.3542 8.95353 88.5524 7.44881 87.0476C6.14207 85.7409 5.32042 84.1867 4.98383 82.385C4.64725 80.5833 4.89474 78.6529 5.72629 76.5938C6.57765 74.5149 8.04278 72.436 10.1217 70.3571C11.5472 68.9316 13.1014 67.6941 14.7843 66.6448C16.4672 65.5558 18.1304 64.7837 19.7737 64.3283L22.7435 71.5153C19.6747 72.5251 17.2295 73.9407 15.408 75.7622C13.6063 77.5639 13.141 78.9004 14.0122 79.7715C14.4279 80.1873 15.012 80.2368 15.7644 79.92C16.4969 79.5834 17.5958 78.9202 19.0609 77.9302C20.9418 76.6433 22.6247 75.6533 24.1097 74.9604C25.5748 74.2476 27.1389 73.9308 28.802 74.01C30.4849 74.0694 32.0788 74.8515 33.5835 76.3562C34.8902 77.6629 35.7119 79.2171 36.0484 81.0188C36.3652 82.8008 36.1078 84.7411 35.2763 86.8397C34.4447 88.8988 32.9895 90.9678 30.9106 93.0467Z" fill="#FF5146"/>
<path d="M52.7457 63.0148L44.8459 70.9146L47.0733 75.9337L39.9457 83.0613L28.2445 53.1846L35.1345 46.2946L65.0112 57.9958L57.7648 65.2422L52.7457 63.0148ZM45.7666 59.8965L38.5202 56.6891L41.7276 63.9355L45.7666 59.8965Z" fill="#FF5146"/>
<path d="M45.3408 36.0883L52.3497 29.0794L67.7038 44.4336L77.0885 35.0488L82.5233 40.4837L66.1298 56.8772L45.3408 36.0883Z" fill="#FF5146"/>
<path d="M96.4575 15.9768L101.744 21.2632L84.4593 38.5477L63.6704 17.7588L80.5688 0.860314L85.8551 6.14665L75.8467 16.155L78.282 18.5903L87.0728 9.79956L92.1215 14.8483L83.3308 23.6391L86.063 26.3713L96.4575 15.9768Z" fill="#FF5146"/>
<path fill-rule="evenodd" clip-rule="evenodd" d="M43.1577 150.161V97.9365L65.5397 75.5544L87.9218 97.9365V150.161H43.1577ZM65.5396 97.3034C68.2866 97.3034 70.5134 95.0766 70.5134 92.3296C70.5136 89.5827 68.2867 87.3559 65.5397 87.3559C62.7928 87.3559 60.5659 89.5827 60.5659 92.3297C60.5659 95.0767 62.7928 97.3035 65.5396 97.3034ZM65.1582 117.459C65.735 116.882 66.0233 116.139 66.0233 115.23C66.0233 114.32 65.735 113.577 65.1582 113C64.5815 112.424 63.7885 112.135 62.7792 112.135C62.1027 112.135 61.5204 112.268 61.0324 112.535C60.5444 112.801 60.1728 113.172 59.9177 113.649C59.6626 114.115 59.5351 114.642 59.5351 115.23C59.5351 115.817 59.6626 116.35 59.9177 116.827C60.1728 117.293 60.5444 117.659 61.0324 117.925C61.5204 118.191 62.1027 118.324 62.7792 118.324C63.7885 118.324 64.5815 118.036 65.1582 117.459ZM59.7015 105.58V108.392L71.347 116.344V113.533L59.7015 105.58ZM63.8939 114.714C64.1157 114.847 64.2266 115.019 64.2266 115.23C64.2266 115.44 64.1157 115.618 63.8939 115.762C63.661 115.895 63.2894 115.962 62.7792 115.962C62.269 115.962 61.903 115.895 61.6812 115.762C61.4483 115.618 61.3318 115.44 61.3318 115.23C61.3318 115.019 61.4483 114.847 61.6812 114.714C61.903 114.57 62.269 114.498 62.7792 114.498C63.2894 114.498 63.661 114.57 63.8939 114.714ZM70.6483 108.924C71.225 108.348 71.5134 107.605 71.5134 106.695C71.5134 105.786 71.225 105.043 70.6483 104.466C70.0715 103.889 69.2785 103.601 68.2693 103.601C67.5927 103.601 67.0104 103.734 66.5224 104C66.0344 104.266 65.6629 104.638 65.4078 105.115C65.1527 105.581 65.0251 106.107 65.0251 106.695C65.0251 107.283 65.1527 107.815 65.4078 108.292C65.6629 108.758 66.0344 109.124 66.5224 109.39C67.0104 109.656 67.5927 109.79 68.2693 109.79C69.2785 109.79 70.0715 109.501 70.6483 108.924ZM69.3839 106.179C69.6057 106.313 69.7166 106.484 69.7166 106.695C69.7166 106.906 69.6057 107.083 69.3839 107.228C69.151 107.361 68.7794 107.427 68.2693 107.427C67.7591 107.427 67.3931 107.361 67.1712 107.228C66.9383 107.083 66.8219 106.906 66.8219 106.695C66.8219 106.484 66.9383 106.313 67.1712 106.179C67.3931 106.035 67.7591 105.963 68.2693 105.963C68.7794 105.963 69.151 106.035 69.3839 106.179ZM71.6132 124.353C71.6132 125.384 71.3747 126.299 70.8978 127.098C70.4098 127.885 69.7111 128.506 68.8016 128.961C67.8811 129.405 66.7886 129.627 65.5242 129.627C64.2599 129.627 63.1729 129.405 62.2635 128.961C61.3429 128.506 60.6442 127.885 60.1673 127.098C59.6793 126.299 59.4353 125.384 59.4353 124.353C59.4353 123.321 59.6793 122.412 60.1673 121.624C60.6442 120.826 61.3429 120.205 62.2635 119.761C63.1729 119.306 64.2599 119.079 65.5242 119.079C66.7886 119.079 67.8811 119.306 68.8016 119.761C69.7111 120.205 70.4098 120.826 70.8978 121.624C71.3747 122.412 71.6132 123.321 71.6132 124.353ZM68.4689 124.353C68.4689 123.466 67.4873 123.022 65.5242 123.022C63.5611 123.022 62.5796 123.466 62.5796 124.353C62.5796 125.24 63.5611 125.684 65.5242 125.684C67.4873 125.684 68.4689 125.24 68.4689 124.353ZM71.347 130.432H68.3025V134.358L66.7886 132.694C66.0788 131.907 65.4466 131.38 64.8921 131.114C64.3264 130.837 63.722 130.698 63.0787 130.698C62.3578 130.698 61.72 130.898 61.1655 131.297C60.6109 131.696 60.1839 132.251 59.8845 132.961C59.585 133.67 59.4353 134.486 59.4353 135.406C59.4353 136.615 59.6793 137.646 60.1673 138.5C60.6442 139.354 61.2986 140.003 62.1304 140.447L63.611 137.486C63.2672 137.319 63.001 137.081 62.8125 136.77C62.6239 136.46 62.5297 136.127 62.5297 135.772C62.5297 135.406 62.6129 135.129 62.7792 134.94C62.9345 134.741 63.1563 134.641 63.4447 134.641C63.6776 134.641 63.916 134.702 64.16 134.824C64.404 134.946 64.698 135.19 65.0418 135.556L68.9347 139.765H71.347V130.432ZM65.125 140.649V145.639H67.9532V140.649H65.125Z" fill="#FF5146"/>
<path fill-rule="evenodd" clip-rule="evenodd" d="M63.3238 60.2704C62.9304 60.5338 62.3757 61.0907 61.6591 62.1059C60.2569 64.0923 59.6705 65.7925 59.5698 67.2506C59.4697 68.702 59.8437 70.0147 60.5331 71.245C61.5919 73.1344 63.3311 74.7433 65.1247 76.2389C65.2658 71.4334 65.2598 66.3343 64.6921 63.0144C64.5276 62.0523 64.3256 61.3029 64.0969 60.7772C63.9836 60.517 63.8766 60.3416 63.7874 60.2303C63.7251 60.1526 63.6821 60.1193 63.6634 60.1069C63.6181 60.1123 63.5134 60.1434 63.3238 60.2704ZM63.6909 60.1086C63.6904 60.1101 63.6822 60.1108 63.668 60.1064C63.6844 60.1049 63.6915 60.1071 63.6909 60.1086ZM67.0267 62.6152C67.7387 66.7798 67.6167 73.339 67.4098 78.7165L67.3184 81.0945L65.4766 79.5876C65.2747 79.4224 65.0653 79.2526 64.8502 79.0783C62.712 77.345 60.0083 75.1534 58.467 72.4028C57.596 70.8486 57.0695 69.0806 57.207 67.0876C57.3441 65.1013 58.1337 62.9932 59.7241 60.7401C60.5039 59.6355 61.2573 58.8038 62.006 58.3024C62.7775 57.7858 63.7073 57.5269 64.6269 57.9417C65.4482 58.3122 65.9469 59.093 66.2686 59.8323C66.6057 60.6069 66.8474 61.5668 67.0267 62.6152Z" fill="#FF5146"/>
</svg>
