<?xml version="1.0" encoding="utf-8"?>
<!-- Generator: Adobe Illustrator 23.1.0, SVG Export Plug-In . SVG Version: 6.00 Build 0)  -->
<svg version="1.1" id="Слой_1" xmlns="http://www.w3.org/2000/svg" xmlns:xlink="http://www.w3.org/1999/xlink" x="0px" y="0px"
	 viewBox="0 0 317.9 377" style="enable-background:new 0 0 317.9 377;" xml:space="preserve">
<path class="st0" d="M45.4,198.6c1.1,1,2.2,2,1.2,3.1c0,0,0,0-1,1.1l-1,1.1c0,0-1,1.1-2.1,0.1l-1.1-1
	C43.4,200.9,44.4,199.8,45.4,198.6z M65.9,180.6c-1.1-1-1.1-1-2.2-2l-1,1.1C63.8,180.7,63.8,180.7,65.9,180.6
	C64.9,181.8,65.9,180.6,65.9,180.6z M68.7,173.1C69.8,174.1,68.8,175.2,68.7,173.1c1.1,1,1.1,1,1.1,1s1-1.1,2-2.2l-1.1-1
	C69.7,171.9,68.7,173.1,68.7,173.1z M33.1,254.7c2-2.2,3.1-1.2,3.1-1.2l1-1.1l1.1,1c0,0,0,0-1,1.1l-1,1.1c0,0,0,0-1,1.1
	c0,0-1,1.1-2.1,0.1l-1,1.1c-1,1.1-1,1.1-3.1,1.2l-1.1-1c-1.1-1-0.1-2.1-0.1-2.1s1-1.1,2-2.2c-1.1-1,1-1.1,1-1.1
	C32,253.6,32,253.6,33.1,254.7C31,254.7,31,254.7,33.1,254.7C31,254.7,32,253.6,33.1,254.7C32,253.6,32,253.6,33.1,254.7z
	 M28.8,254.8C29.9,255.9,28.8,254.8,28.8,254.8L28.8,254.8z M24.6,255c2.1-0.1,3.1-1.2,4.2-2.3c1-1.1,1-1.1-0.1-2.1
	c0,0-1.1-1-2.1,0.1l-1,1.1c0,0,0,0-1,1.1c0,0-1.1-1-1,1.1C22.3,253,22.4,255.1,24.6,255C23.5,254,24.6,255,24.6,255z M88.9,354.5
	c-1.1-1-1,1.1-2.1,0.1l-1,1.1c-1,1.1-2,2.2-0.9,3.2c0.1,2.1,1.2,3.1,3.3,3l2.1-0.1l1-1.1c1-1.1,1-1.1,2-2.2l-0.1-2.1
	c0,0-1.1-1-2.2-2C90.1,355.5,88.9,354.5,88.9,354.5z M39.3,227.7C39.3,227.7,40.3,226.6,39.3,227.7c1-1.1,2.1-0.1,2.1-0.1
	s1.1,1,0.1,2.1c1.1,1,1.1,1,0.1,2.1c-1,1.1-1,1.1-2.1,0.1c0,0,0,0-1.1-1C38.3,228.8,38.3,228.8,39.3,227.7z M40.4,228.7
	C40.4,228.7,41.4,227.6,40.4,228.7C41.4,227.6,40.4,228.7,40.4,228.7C41.4,227.6,40.4,228.7,40.4,228.7z M55,313.4
	C53.9,312.4,53.9,312.4,55,313.4C53.9,312.4,53.9,312.4,55,313.4C53.9,312.4,52.9,313.5,55,313.4c-1,1.1-2.1,0.1-1,1.1l-1,1.1
	c0,0,0,0-1,1.1l-1,1.1l-1,1.1l1-1.1l1-1.1c0,0,0,0,1-1.1c0,0,0,0,1-1.1C54,314.5,54,314.5,55,313.4C55,313.4,56,312.3,55,313.4
	C56,312.3,56,312.3,55,313.4C56,312.3,55,313.4,55,313.4z M84.4,303.5C84.4,303.5,83.3,302.5,84.4,303.5c-1.1-1-1.1-1-1.1-1
	s0,0,1-1.1c1-1.1,1-1.1,2.1-0.1c0,0,0,0,1.1,1c1-1.1,1-1.1,1.1,1c0,0,2.1-0.1,1.1,1c0,0,0.1,2.1-1,1.1c0,0,0,0-2.1,0.1
	C85.5,304.5,85.5,304.5,84.4,303.5C84.5,305.6,84.5,305.6,84.4,303.5C83.4,304.6,84.4,303.5,84.4,303.5z M107,375
	C105.9,376.1,105.9,376.1,107,375c0.1,2.1,2.2,2,2.2,2S108.1,376,107,375z M49.2,257.1C49.2,257.1,51.3,257,49.2,257.1
	c2.1-0.1,1-1.1,1-1.1C51.2,254.9,51.2,254.9,49.2,257.1C50.2,256,49.2,257.1,49.2,257.1z M15.8,249C14.7,250.2,14.7,250.2,15.8,249
	C15.9,251.2,16.9,250.1,15.8,249C16.9,250.1,15.8,249,15.8,249z M168.5,276.2C167.4,277.3,167.4,277.3,168.5,276.2
	C167.4,277.3,167.4,277.3,168.5,276.2c-1,1.1-2,2.2-0.9,3.2c0,0,1.1,1,2.1-0.1c0,0,1-1.1-0.1-2.1
	C169.6,277.2,169.6,277.2,168.5,276.2C169.5,275.1,168.5,276.2,168.5,276.2z M70,292.4C67.9,292.5,67.9,292.5,70,292.4
	C67.9,292.5,67.9,292.5,70,292.4C69,293.5,69,293.5,70,292.4C69,293.5,69,293.5,70,292.4z M86.6,327.9c-1.1-1-2.1,0.1-3.1,1.2
	c-1,1.1-1,1.1,1.1,1C86.7,330.1,86.6,327.9,86.6,327.9z M66.2,323.5C67.3,324.5,67.3,324.5,66.2,323.5
	C67.3,324.5,67.3,324.5,66.2,323.5C67.2,322.4,67.2,322.4,66.2,323.5C67.2,322.4,67.2,322.4,66.2,323.5
	C67.2,322.4,66.2,323.5,66.2,323.5z M42.8,279.8C43.9,280.8,43.9,280.8,42.8,279.8C43.8,278.7,43.8,278.7,42.8,279.8z M220.8,232.2
	C220.8,232.2,221.8,231.1,220.8,232.2L220.8,232.2z M126.4,333.6C126.4,333.6,127.4,332.5,126.4,333.6
	C125.2,332.6,126.4,333.6,126.4,333.6z M222.9,232.2C221.8,231.1,221.8,231.1,222.9,232.2L222.9,232.2z M55.3,319.8
	C55.3,319.8,54.3,320.9,55.3,319.8C54.2,318.7,54.2,318.7,55.3,319.8C54.2,318.7,54.2,318.7,55.3,319.8
	C55.3,319.8,54.3,320.9,55.3,319.8z M85.8,333.3C86.9,334.3,86.9,334.3,85.8,333.3C86.9,334.3,86.9,334.3,85.8,333.3z M82.1,344.1
	C83.2,345.1,83.2,345.1,82.1,344.1C83.1,343,83.1,343,82.1,344.1z M56.1,336.8C57.1,335.7,57.1,335.7,56.1,336.8
	C57.1,335.7,57.1,335.7,56.1,336.8C57.1,335.7,57.1,335.7,56.1,336.8z M152.1,267.4C151,268.5,151,268.5,152.1,267.4
	C152.1,267.4,153.2,268.4,152.1,267.4z M60,305.7C61.1,306.7,61.1,306.7,60,305.7C62.1,305.6,61,304.6,60,305.7c1-1.1,2-2.2,2-2.2
	s0,0,1-1.1c0,0,0,0,1-1.1c0,0-1.1-1-2.1,0.1c0,0,0,0-1,1.1c0,0-1.1-1-1,1.1c-1,1.1-1,1.1-2,2.2l-1,1.1c0,0,0,0-1,1.1
	c-1,1.1-1,1.1-0.9,3.2c1.1,1,1.1,1,1.1,1c1-1.1,1-1.1,2-2.2C60.1,307.8,61.1,306.7,60,305.7z M72.9,331.7
	C71.8,330.7,71.8,330.7,72.9,331.7C71.8,330.7,71.8,330.7,72.9,331.7C71.8,330.7,71.8,330.7,72.9,331.7z M53.3,322
	C54.4,323,54.4,323,53.3,322C54.4,323,53.3,322,53.3,322z M118.7,353.1C117.7,354.2,117.7,354.2,118.7,353.1L118.7,353.1z
	 M70.8,309.5C69.8,310.6,70.9,311.6,70.8,309.5C72,310.5,73,309.4,70.8,309.5C73,309.4,71.9,308.3,70.8,309.5z M268.3,39.2
	c-1.1-1-2.1,0.1-4.3,0.2c-1,1.1-3.1,1.2-1.9,4.4c1.1,1,3.2,0.9,3.2,0.9C267.4,42.4,268.4,41.3,268.3,39.2z M194.1,49
	c0,0,1.1,1,3.2,0.9c1-1.1,3-3.3,1.9-4.4c0,0-1.1-1-2.1,0.1C195,45.7,193,48,194.1,49z M215.8,78.9c-0.9,3.2,0.2,4.3,3.3,3
	c2.1-0.1,4.3-0.2,3-3.3c-1.1-1-0.1-2.1,0.9-3.2l-1.1-1C218.8,75.6,216.8,77.8,215.8,78.9z M184.4,70.7c-1,1.1-1,1.1,0.1,2.1
	c1.1,1,2.2,2,3.2,0.9c2-2.2,0.9-3.2-0.2-4.3C186.5,68.5,185.5,69.6,184.4,70.7z M220.8,26.4c-1.1-1-2.1,0.1-2.1,0.1l-1,1.1
	c1.1,1,2.1-0.1,2.1-0.1L220.8,26.4z M76,169.5c-1.1-1-1.1-1-2.1,0.1c0,0-1,1.1,0.1,2.1c1-1.1,1-1.1,2.1-0.1
	C77.1,170.5,77.1,170.5,76,169.5z M191.8,44.8c-1.1-1-1.1-1-2.1,0.1c-1,1.1-1,1.1,0.1,2.1c1.1,1,1.1,1,2.1-0.1
	C191.9,47,192.9,45.8,191.8,44.8z M232.6,51.5c-1,1.1-2,2.2-0.9,3.2c0,0,1.1,1,2.1-0.1C233.8,54.6,234.8,53.5,232.6,51.5
	C233.7,52.5,232.6,51.5,232.6,51.5z M290.8,133.1c-1.1-1-1,1.1-2.1,0.1c-2.1,0.1-3.1,1.2-5.2,3.4c1.1,1,2.1-0.1,4.3-0.2
	c1-1.1,2.1-0.1,3.1-1.2c1-1.1,3.1-1.2,4.2-2.3C292.8,130.9,291.8,132,290.8,133.1z M261.1,67.3c1.1,1,2.1-0.1,2.1-0.1
	c1-1.1,1-1.1,2-2.2C263.1,65,262.1,66.1,261.1,67.3z M152.3,45.6C153.4,44.4,154.5,45.5,152.3,45.6c2-2.2,2-2.2,0.9-3.2
	c0,0,0,0-1,1.1C151.1,42.4,152.2,43.4,152.3,45.6z M293.9,62.6l-1,1.1c1.1,1,1.1,1,2.1-0.1l1-1.1C294.9,61.5,293.9,62.6,293.9,62.6z
	 M88.4,274.5c-1.1-1-1.1-1-1.1-1c-1,1.1-1,1.1,0.1,2.1l1.1,1C88.4,274.5,88.4,274.5,88.4,274.5z M242.4,78.8c-1,1.1-1,1.1,0.1,2.1
	c1.1,1,2.1-0.1,3.1-1.2c1-1.1,2-2.2-0.1-2.1C244.4,76.5,243.4,77.7,242.4,78.8z M243.1,93.7c-1,1.1-3.1,1.2-4.2,2.3
	C241.1,95.9,242.1,94.8,243.1,93.7z M230.6,76.1c0.1,2.1,1.1,1,2.1-0.1c1-1.1,3.1-1.2,0.9-3.2C230.5,74,230.5,74,230.6,76.1z
	 M179.3,74.2c0,0,2.1-0.1,2-2.2l-1.1-1C179.2,72.1,179.2,72.1,179.3,74.2z M225,71c-1,1.1-1,1.1-2,2.2C224.1,74.3,226.2,74.2,225,71
	C226.1,72.1,226.1,72.1,225,71z M174.3,287.7c1-1.1-0.1-2.1,0.9-3.2C173.1,284.5,174.2,285.6,174.3,287.7z M40,150.9
	c-2.1,0.1-2.1,0.1-1,1.1C38.9,152,40.1,153,40,150.9C40.1,153,41.1,151.9,40,150.9z M194.8,63.9C195.9,64.9,195.9,64.9,194.8,63.9
	c2.1-0.1,1-1.1,1-1.1S195.8,62.8,194.8,63.9C195.8,62.8,194.8,63.9,194.8,63.9z M197.4,27.5c2.1-0.1,2.1-0.1,1-1.1L197.4,27.5z
	 M245.4,50.9l1-1.1C246.4,49.8,246.4,49.8,245.4,50.9C246.4,49.8,245.4,50.9,245.4,50.9z M273,72C273,72,270.9,72.1,273,72
	c-2.1,0.1-1,1.1-1,1.1C271,74.3,272,73.2,273,72C272,73.2,273,72,273,72z M252.4,87.9C253.6,88.9,253.6,88.9,252.4,87.9
	c2.1-0.1,1-1.1,1-1.1S253.5,86.8,252.4,87.9C253.5,86.8,252.4,87.9,252.4,87.9z M76,147.1c1-1.1,2.1-0.1,2-2.2l-1.1-1
	c-1.1-1-2.1,0.1-3.1,1.2C72.8,146.2,73.9,147.2,76,147.1z M258,115.4c1.1,1,2.2,2,1.2,3.1c-1,1.1-2,2.2-0.9,3.2l-1,1.1
	c0,0,1.1,1,0.1,2.1l1.1,1c1.1,1,0.1,2.1,0.2,4.3c2.2,2,5.5,3,4.6,6.2c1.1,1,1.1,1,0.1,2.1c0,0,0,0,1.1,1c1.1,1,2.2,2,2.2,2l1.1,1
	l1.1,1c1.1,1,2.1-0.1,4.4,1.9c0,0,0.1,2.1-1,1.1c-1,1.1-3.1,1.2-5.3,1.3l-1,1.1c1.1,1,2.1-0.1,2.2,2c0.1,2.1,0.1,2.1,1.2,3.1
	c1-1.1,1-1.1,2.1-0.1c2.2,2,0.1,2.1-0.9,3.2c-1,1.1-0.9,3.2-1.9,4.4c-1,1.1-0.9,3.2-0.9,3.2c-1,1.1-2,2.2-4.1,4.4
	c-1,1.1,0.1,2.1-0.9,3.2c0.2,4.3,2.4,6.3,3.6,9.4c1.1,1,2.2,2,2.2,2c1.1,1,1-1.1,2.1-0.1c1-1.1,2.1-0.1,4.3-0.2l2.1-0.1
	c2.1-0.1,3.1-1.2,3.2,0.9c0.1,2.1-2,2.2-2,2.2c-1,1.1-2.1,0.1-2.1,0.1c-2.1,0.1-2.1,0.1-4.3,0.2c-1,1.1-2.1,0.1-4.3,0.2l-1,1.1
	l-1,1.1c-1,1.1-4.3,0.2-3,3.3c1.1,1,1.1,1,1.2,3.1c0.1,2.1-1.9,4.4,0.3,6.4l1.1,1c0,0,1-1.1,2.1-0.1c1-1.1,2-2.2,3.1-1.2
	c1.1,1,0.1,2.1,0.1,2.1c0.1,2.1-1,1.1-2,2.2c1-1.1,1-1.1-1.1-1c-4.3,0.2-2,2.2-1.9,4.4c1.1,1,0.1,2.1,0.1,2.1c1.1,1,2.2,2,0.1,2.1
	c-1,1.1-1,1.1-2,2.2c-1,1.1-0.9,3.2-0.9,3.2c2.2,2,5.5,3,5.6,5.1c-4.3,0.2-5.4-0.8-5.6-5.1l-1.1-1c0,0-1,1.1-2.1,0.1
	c-1,1.1-0.9,3.2-4.2,2.3l-2.1,0.1l0.1,2.1c1.1,1,0.1,2.1-0.9,3.2c-1,1.1-2,2.2-3,3.3l0.1,2.1c1.1,1,0.1,2.1,0.1,2.1
	c1.1,1,1.1,1,0.1,2.1l-1,1.1c1.1,1,1.1,1,1.2,3.1c-1.1-1-2,2.2-2.1,0.1c0,0-0.1-2.1,0.9-3.2c-0.1-2.1-1.2-3.1-2.3-4.2
	c-1.1-1-1.1-1-2.2-2c-1.1-1-2.1,0.1-2.2-2c-0.1-2.1-1.1-1-2.2-2c0,0,0,0-1.1-1c0,0,0,0-1.1-1c-1,1.1-3.1,1.2-3.1,1.2s0,0-1,1.1
	c0.1,2.1,0.1,2.1,1.2,3.1c1.1,1,0.1,2.1-0.9,3.2c-1,1.1-1,1.1-0.9,3.2c-2,2.2-1.9,4.4-1.8,6.5c0,0,0.1,2.1-0.9,3.2
	c-1,1.1-1.1-1-1.1-1c0.9-3.2,0.8-5.4,1.7-8.6c-1.1-1-1.1-1-1.2-3.1c-1.1-1-1.1-1-1.1-1c-1.1-1-1.2-3.1-0.2-4.3
	c-1.1-1-1.2-3.1-2.3-4.2c-1,1.1-3.1,1.2-4.3,0.2c-1,1.1-2,2.2-1.9,4.4l-1,1.1l-1,1.1c-2.1,0.1-3.2-0.9-2.2-2c0,0,1-1.1,2-2.2
	c0,0,0,0,1.1,1l1.1,1l1-1.1l-0.1-2.1c-2.1,0.1-5.4-0.8-6.4,0.3c0,0,0.1,2.1-1,1.1c-2,2.2-5.2,3.4-6.1,6.7c0.1,2.1-0.9,3.2,0.2,4.3
	c1.1,1,0.1,2.1,1.2,3.1c1.1,1,0.1,2.1-0.9,3.2c-1,1.1-3,3.3-4.1,4.5c1.1,1,1.2,3.1-0.9,3.2c-3.1,1.2-3,3.3-2.9,5.5l-1,1.1
	c-1,1.1-2,2.2,0.2,4.3c1.1,1,3.2,0.9,2.2,2c-1,1.1-2.1,0.1-2.1,0.1c-1.1-1-1.1-1-2.2-2c0,0,0,0-1,1.1c-2,2.2-4.2,2.3-5.1,5.6
	c-2.2-2-4.4-1.9-5.5-2.9c-1,1.1-1,1.1-2,2.2c-1,1.1-1,1.1-3.1,1.2c-3.2-0.9-6.5-1.8-8.7-3.9c-1.1-1-1.1-1-2.2-2c0,0-1.1-1-0.1-2.1
	c0,0,0,0-1.1-1l1.1,1l1.1,1l0.1,2.1c-1,1.1-1,1.1-2,2.2c-2.1,0.1-3.2-0.9-4.4-1.9c0,0-1.1-1-0.1-2.1c-1.1-1-3.2-0.9-2.3-4.2
	l-2.1,0.1c0,0-1,1.1-2.1,0.1l-2.1,0.1c-1.1-1-2.1,0.1-1,1.1l0.1,2.1c0,0-1,1.1,0.1,2.1c1.1,1,0.1,2.1,1.2,3.1
	c0.1,2.1,0.1,2.1,1.2,3.1c1.1,1,1.1,1,1.2,3.1c0,0,0,0,1.1,1c1.1,1,1.1,1,0.1,2.1c0,0,0,0,1.1,1c0,0,0,0,1.1,1c0,0,0,0,1.1,1
	c0,0,0,0,1.1,1c0,0,1.1,1,0.1,2.1l1.1,1c0,0,0,0,1.1,1c0,0,0,0,1.1,1l1.1,1c0,0,0,0-1,1.1c-1,1.1-1,1.1,0.1,2.1l1.1,1
	c-1,1.1-1,1.1-2.1,0.1l-1.1-1c0,0,0,0,1-1.1l-1.1-1l-1.1-1l-1.1-1c-1.1-1-1.2-3.1-1.2-3.1c-0.1-2.1-1.2-3.1-2.3-4.2l-1.1-1
	c-1.1-1-1.1-1-2.2-2l-1.1-1l-1.1-1l-1.1-1c0,0,0,0-1.1-1c0,0-1,1.1,0,0c0,0,0,0-1.1-1c-1,1.1-3.1,1.2-4.3,0.2c0,0,0,0-1,1.1
	c0,0,0,0-1.1-1c-1.1-1-2.1,0.1-2.1,0.1l-1,1.1l1.1,1l1.1,1c1.1,1,1.1,1,0.1,2.1c0,0,0,0-1.1-1l-1.1-1c1-1.1-0.1-2.1-1.2-3.1
	c0,0,0,0-1,1.1c-1,1.1-1,1.1-2,2.2c0,0,0,0-1,1.1l-1,1.1c0,0,0,0,1-1.1c-1,1.1-1,1.1-1,1.1c1.1,1,0.1,2.1-0.9,3.2l1.1,1
	c1.1,1,1.1,1,0.1,2.1c-1,1.1-1,1.1-1,1.1c1.1,1,1.1,1,0.1,2.1c-1,1.1,0.1,2.1-0.9,3.2c0,0,0,0-1,1.1l-1,1.1c0,0,0,0-1,1.1
	c-1,1.1-1,1.1-2.1,0.1c0,0,0,0-1.1-1c0,0,0,0-1,1.1l0.1,2.1c1.1,1,0.1,2.1,0.1,2.1s0,0,1.1,1c1-1.1,2.1-0.1,2.1-0.1l0.1,2.1l1.1,1
	c0,0,0,0,1.1,1c0,0,0,0,1.1,1c0,0-1,1.1-2.1,0.1c0,0,0,0,1.1,1c0,0,0,0,1.1,1l-1,1.1l-1,1.1c0,0,0,0-1,1.1c0,0,0,0,1.1,1
	c0,0,0.1,2.1,1.1,1c1.1,1,1.1,1,2.2,2l-1,1.1c0,0-1,1.1-2.1,0.1c-1.1-1-2.1,0.1-3.1,1.2l-1,1.1c0,0,0,0-1,1.1l-1,1.1
	c-1,1.1-1,1.1-1,1.1l-1,1.1c0,0,0,0-1,1.1c0,0-2.1,0.1-1.1-1l-1.1-1c0,0,0,0-1.1-1c0,0,0,0-1.1-1c-1.1-1-1.1-1-2.1,0.1l-1,1.1
	c-1,1.1-1,1.1-1.1-1c0,0,0,0-1,1.1l-1.1-1l-2.1,0.1l-1,1.1c0,0,0,0-1.1-1l-1.1-1l-1.1-1c-1.1-1-1.1-1-1.2-3.1l-1.1-1c0,0,0,0-1.1-1
	l1-1.1c0,0,1-1.1-0.1-2.1c1-1.1-0.1-2.1-0.1-2.1s0,0-1.1-1l-2.1,0.1l-1.1-1l1-1.1c0,0,0,0,1-1.1c0,0,0,0,1-1.1c0,0,1-1.1-0.1-2.1
	l1-1.1l1-1.1c0,0,0,0,1-1.1c-1.1-1-1.1-1-1.2-3.1c0,0,0,0,1-1.1c0,0,0,0,1-1.1l2.1-0.1c1.1,1,1.1,1,2.1-0.1c1-1.1,2.1-0.1,2-2.2
	c0,0,0,0,1-1.1c0,0,0,0,1-1.1l-1.1-1c-1.1-1-2.2-2-1.2-3.1l-1.1-1c-1.1-1-1.1-1-1.2-3.1c0,0,0,0-1.1-1c0,0,0,0-1,1.1
	c-1,1.1-2.1,0.1-2.1,0.1c-1,1.1-1,1.1-2,2.2c1-1.1-0.1-2.1-0.2-4.3c0,0,0,0,1-1.1l1-1.1c0,0,1-1.1,2.1-0.1c0,0,0,0-1.1-1l-1.1-1
	c1-1.1,2.1-0.1,4.2-2.3c-0.1-2.1,0.9-3.2,2-2.2l-1,1.1c0,0,0,0,1.1,1c1-1.1,2.1-0.1,3.1-1.2c0,0,1-1.1-0.1-2.1c0,0,1-1.1-0.1-2.1
	c0,0,1-1.1-0.1-2.1c0,0,0,0-1,1.1l1-1.1c-1,1.1-2,2.2-4.2,2.3c0,0,0,0-1.1-1l-1.1-1l-1.1-1c-1.1-1-0.1-2.1,0.9-3.2
	c0,0-1,1.1-2.1,0.1l-1.1-1c0,0,0,0-1,1.1c0,0,0,0-1,1.1c0,0-1,1.1-2.1,0.1c0,0,0,0-1,1.1l-1,1.1c-13.1,16.6-15.2,16.7-15.1,18.8
	c-0.1-2.1-0.1-2.1-0.1-2.1l-1,1.1c1.1,1,1.1,1-1,1.1l-1,1.1c0,0,0,0-1,1.1c0,0,0,0-1,1.1l1.1,1c-1,1.1-1,1.1-2.1,0.1
	c-1,1.1-1,1.1-2.1,0.1l-1.1-1c-1.1-1-1.1-1-0.1-2.1l-1.1-1c1-1.1,1-1.1,2-2.2c1-1.1,1-1.1,2-2.2l1-1.1l1-1.1c0,0-1.1-1-0.1-2.1
	c1-1.1,1-1.1,0.9-3.2c-0.1-2.1,1.9-4.4,2.9-5.5c1-1.1,1-1.1-0.1-2.1l1-1.1l-2.1,0.1c-1.1-1-0.1-2.1,1-1.1c1-1.1,1-1.1,2.1-0.1
	c0,0,0,0,1-1.1c0,0,0,0-1.1-1c0,0,0,0-2.1,0.1c0,0,0,0-1,1.1c1-1.1-0.1-2.1-1.1-1c0,0-1.1-1-2.1,0.1c0,0,0,0-1,1.1
	c-1,1.1-1,1.1-3.1,1.2c-1,1.1-1,1.1-3.1,1.2c-2.1,0.1-1,1.1-3.1,1.2c0,0-1,1.1-2.1,0.1c1.1,1,0.1,2.1,0.1,2.1c-1,1.1-1,1.1-2,2.2
	l-2.1,0.1c-2.1,0.1-3.2-0.9-2.2-2l-1,1.1c0,0-1,1.1-2.1,0.1l-1,1.1c0,0,0,0-1,1.1c0,0,0,0-1,1.1c0,0,0,0-1,1.1l-1,1.1l-1,1.1l-1,1.1
	l-1,1.1l-1,1.1l-1,1.1c-1,1.1-2,2.2-4.2,2.3c-1,1.1-1,1.1-2,2.2l0.1,2.1c-1,1.1-1,1.1-2,2.2l-1,1.1l-1,1.1c-5.3,1.3-7.4,1.4-7.4,1.4
	l-2.1,0.1c0,0,0,0-1.1-1c-1.1-1-1.1-1-2.2-2c-1.1-1-0.1-2.1-0.1-2.1c1-1.1,2-2.2,2-2.2c1-1.1,2-2.2,3-3.3l2.1-0.1l2.1-0.1
	c1-1.1,1-1.1,1-1.1c1-1.1,1-1.1,2-2.2c1-1.1,2-2.2,3-3.3l1-1.1l1-1.1c1-1.1,2-2.2,2-2.2c1-1.1,1-1.1,2-2.2c1-1.1,2-2.2,3-3.3l1-1.1
	c0,0,0,0,1-1.1c1-1.1,1-1.1,2-2.2c1-1.1,2-2.2,4.2-2.3c0,0,1-1.1,2.1-0.1c0,0,0,0,1-1.1l1-1.1c1-1.1,1-1.1,2-2.2l1-1.1
	c1-1.1,1-1.1,2-2.2c-1.1-1-1.1-1-1.1-1l-1,1.1c8.5-0.4,7.5,0.7,5.4,0.8c-1,1.1-2.1,0.1-2.1,0.1c1.1,1,2.1-0.1,3.1-1.2
	c-1,1.1-2.1,0.1-3.1,1.2c0,0,0,0-1.1-1c-1,1.1-2,2.2-4.2,2.3c-1.1-1-1.1-1-1.1-1l-1,1.1l-1,1.1c-1,1.1-2.1,0.1-3.2-0.9l-1.1-1
	c0,0,0,0,1-1.1c0,0,0,0,1-1.1c0,0,0,0,1-1.1c0,0,0,0,1-1.1l1-1.1c0,0,2.1-0.1,1.1,1c1-1.1,1-1.1,2-2.2c0,0,0,0-1.1-1l1-1.1l1-1.1
	c0,0,0,0-1,1.1c-1.2-3.1-1.2-3.1-2.2-2c0,0-1,1.1-2.1,0.1c-1,1.1-1,1.1-3.1,1.2c-1,1.1-2,2.2-3.1,1.2l-1.1-1l1-1.1c0,0,0,0,1-1.1
	l1-1.1c1-1.1,1-1.1,2-2.2c-1.1-1-1.1-1-0.1-2.1c0,0,0,0,1.1,1l1-1.1c0,0,0,0,1-1.1l1-1.1l-1.1-1l-2.1,0.1c1.2,3.1,0.2,4.3-0.9,3.2
	l-1.1-1l1-1.1c0,0,0,0-1.1-1c-1.1-1-3.2-0.9-3.3-3c-1.1-1-2.2-2-2.3-4.2c-1.1-1-4.3,0.2-1.1-1c0,0,0,0-1.1-1c-2.1,0.1-2.2-2-1.2-3.1
	c1-1.1,1-1.1,2.1-0.1c-0.1-2.1,0.9-3.2,2.9-5.5c-1.1-1-1.1-1-3.2-0.9c-1.1-1-1.1-1-3.2-0.9c0,0-1.1-1-2.2-2l1-1.1
	c4.2-2.3,5.3-1.3,6.4-0.3c1.1,1,1.1,1,2.2,2l1.1,1l1-1.1l1-1.1c0,0-2.1,0.1-3.3-3c2.1-0.1,3.2,0.9,4.3-0.2c0,0,0,0,1-1.1
	c0,0,0,0,1-1.1c1-1.1,2-2.2,2-2.2s0,0-1.1-1l-2.1,0.1c0,0,0,0-1.1-1c0,0,0,0-1.1-1c0,0,0,0-1.1-1c0,0,0,0-1.1-1
	c-1.1-1-1.2-3.1,0.9-3.2l1-1.1l-1.1-1l-1.1-1c-1,1.1-2.1,0.1-3.1,1.2c0,0,0,0-1.1-1l-1.1-1l-1.1-1l-1.1-1c0,0,1-1.1,2.1-0.1
	c0,0,1-1.1,2.1-0.1c0,0,0,0,1.1,1l1.1,1c0,0,0,0,1-1.1c0,0,1.1,1,3.2,0.9l1.1,1c0,0,0,0,1.1,1c1.1,1,1.1,1,2.1-0.1l-1.1-1l-1,1.1
	l1.1,1c0,0-1,1.1,0.1,2.1l1.1,1l2.1-0.1l1.1,1l1-1.1l1-1.1l-1.1-1l-1.1-1c0,0,0,0,2.1-0.1c1.1,1,2.1-0.1,2.1-0.1l1-1.1
	c1-1.1,1-1.1,2.1-0.1c0,0,0,0,1-1.1c5.5,2.9,4.4,1.9,4.3-0.2l-1.1-1l1-1.1c0,0,0,0,1.1,1c1-1.1,1-1.1,2.1-0.1
	c2.1-0.1,2.1-0.1,3.1-1.2l-1.1-1c0,0-1.1-1-0.1-2.1c-1.1-1-1.1-1-2.2-2c-1.1-1-1.1-1-1.1-1c0.9-3.2,1.9-4.4,4.1-4.4
	c1.1,1,2.1-0.1,3.2,0.9c2.1-0.1,2.1-0.1,3.1-1.2c0,0,0,0-1.1-1c-2.1,0.1-3.2-0.9-1.2-3.1c0,0,0,0-1.1-1c0,0,0,0-1.1-1c0,0,0,0-1,1.1
	c0,0,0,0-1.1-1l-1.1-1c0,0,0,0-1.1-1c0,0,0,0-1.1-1c0,0-1.1-1-0.1-2.1l-0.1-2.1c0,0,0,0-1.1-1l1.1,1c1.1,1,1.1,1,2.2,2
	c1-1.1,1.1,1,1.1,1l1.1,1c0,0,0,0,1.1,1l1.1,1c1-1.1-0.1-2.1-1.2-3.1l-1.1-1l1-1.1c-1.1-1-0.1-2.1,0.9-3.2c1-1.1,3.1-1.2,2-2.2
	c1-1.1,0.9-3.2,1.9-4.4c-1.1-1-3.2-0.9-4.5-4.1c2.1-0.1,4.3-0.2,6.5,1.8l2.1-0.1c1.1,1,0.1,2.1,0.1,2.1s1.1,1,0.1,2.1l1.1,1
	c0,0,0,0,1-1.1c2.1-0.1,2.1-0.1,2.2,2c1.1,1,2.1-0.1,3.2,0.9l1-1.1c0,0-1.1-1-0.1-2.1c1-1.1,1-1.1,2.1-0.1c0,0,0,0,1.1,1l1.1,1
	c1-1.1,1-1.1,3.1-1.2c-1,1.1-1,1.1-2,2.2c1.1,1,2.1-0.1,2.2,2c0,0,0,0,0.1,2.1c0,0,0,0,1.1,1l1-1.1l1-1.1c5.2-3.4,5.2-3.4,6.2-4.5
	c-1.1-1-2.2-2-0.1-2.1c1-1.1,1-1.1,2-2.2c1-1.1,1-1.1,0.9-3.2c-1.1-1-2.2-2-3.3-3l-1,1.1c0.1,2.1,0.1,2.1,0.2,4.3c1.1,1-1,1.1-2,2.2
	c-1,1.1-3.1,1.2-5.3,1.3c0,0-1,1.1-2.1,0.1c1-1.1,2-2.2,4.2-2.3l2.1-0.1c-1.1-1-1.2-3.1-1.3-5.3c0,0,0,0,1-1.1c-1,1.1-1,1.1-2,2.2
	c1-1.1,0.9-3.2,3-3.3l1-1.1c-1.1-1-2.2-2-3.3-3c-1,1.1-2,2.2-3,3.3c0.1,2.1,0.1,2.1-0.9,3.2c0,0,0,0-1.1-1c-1.1-1-0.1-2.1,0.9-3.2
	l-1.1-1c0,0-1,1.1-2.1,0.1c-1.1-1-2.1,0.1-1.1-1l1-1.1l-1.1-1c0,0,0,0-2.1,0.1c-1.1-1-4.3,0.2-5.4-0.8c0,0,0,0-2.1,0.1l-1,1.1
	c-1,1.1-3,3.3,0.2,4.3c1.1,1,1.1,1,0.1,2.1c-1,1.1-3.1,1.2-5.3,1.3c-2.1,0.1-3.2-0.9-3.3-3c0.9-3.2,2.9-5.5,6.1-6.7l1-1.1
	c1-1.1,1-1.1,0.9-3.2c-1.1-1-0.1-2.1-1.2-3.1c-1.1-1-3.1,1.2-4.3,0.2c-3.1,1.2-5.3,1.3-7.3,3.5c-1,1.1-2,2.2-3.1,1.2l-1.1-1
	c-2.1,0.1-4.3,0.2-6.4,0.3c0,0-2.1,0.1-1.1-1l1-1.1c1-1.1,1-1.1,2.1-0.1c1-1.1,2.1-0.1,3.1-1.2c-0.1-2.1-0.2-4.3,1.9-4.4
	c3.1-1.2,4.3-0.2,4.4,1.9c0,0,0,0,2.1-0.1c2.1-0.1,3.1-1.2,4.2-2.3l1-1.1c0.9-3.2,4.1-4.4,5-7.7c-3.3-3,0.8-5.4,1.7-8.6
	c-1.1-1-1.1-1-0.1-2.1c0,0-0.1-2.1,0.9-3.2c3.1-1.2,1.9-4.4,2.9-5.5c-0.1-2.1-0.2-4.3-3.3-3c-3.1,1.2-2.2-2-4.4-1.9
	C85,88.1,86,87,86,87c1-1.1,2.1-0.1,3.2,0.9c2.2,2,4.5,4.1,5.4,0.8c-0.1-2.1-0.2-4.3-0.3-6.4c-0.1-2.1-0.2-4.3,1.8-6.5
	c1-1.1-0.1-2.1-1.2-3.1l-1.1-1c-2.1,0.1-2.2-2-4.4-1.9c-1.1-1-2.1,0.1-2.2-2l1-1.1c1-1.1,2.1-0.1,3.2,0.9l1.1,1
	c2.2,2,3.2,0.9,4.3-0.2c1-1.1,2.1-0.1,3.2,0.9c1.1,1,2.2,2,3.2,0.9l-0.1-2.1c-2.2-2-2.3-4.2-3.5-7.3c0,0-1.1-1,1-1.1
	c1.1,1,2.2,2,4.4,1.9c0.9-3.2,1.9-4.4,4.3-0.2c1.1,1,2.2,2,3.3,3c5.3-1.3,1.9-4.4,1.8-6.5c-1.1-1-1.1-1-2.2-2l-1.1-1
	c0,0-1.1-1-0.1-2.1c0,0,0,0,1.1,1l1-1.1c1-1.1,2.1-0.1,3.2,0.9s1.1,1,2.2,2c0,0,1-1.1,2-2.2c2.1-0.1,2.1-0.1,2.2,2c0,0,0,0-1,1.1
	c2.1-0.1,5.4,0.8,7.6,2.9c1.1,1,2.1-0.1,2-2.2c-0.1-2.1,4.2-2.3,2.9-5.5c-1.2-3.1,0.7-7.5-2.6-10.5c-1.1-1-1.1-1-0.1-2.1
	c-0.1-2.1-1.3-5.3,0.8-5.4c2.1-0.1,5.2-3.4,7.4-1.4l1.1,1c1.1,1,1.2,3.1,1.2,3.1c2.2,2,2.3,4.2-0.8,5.4c-1,1.1-1,1.1-3.1,1.2
	c-1,1.1-3,3.3,0.2,4.3c2.2,2,0.1,2.1,0.2,4.3c1.2,3.1,4.4,1.9,6.6,4c4.3-0.2,4.4,1.9,2.3,4.2c1.1,1,2.1-0.1,3.2,0.9
	c1-1.1,1-1.1,3.1-1.2c1-1.1-0.2-4.3,0.8-5.4c-1.1-1-1.1-1-1.2-3.1c-1.2-3.1,1.9-4.4,2.9-5.5c0,0,1-1.1,2.1-0.1c0,0,1.1,1,0.1,2.1
	c-1,1.1-2,2.2-3,3.3c-1,1.1-1,1.1-0.9,3.2c1.1,1,1.1,1,1.2,3.1l1.1,1c3.1-1.2,5.4,0.8,7.5,0.7c2-2.2,3.2,0.9,5.4,0.8
	c1-1.1,2-2.2,2-2.2l1-1.1c1-1.1,2.1-0.1,3.2,0.9c1.1,1,1.2,3.1,0.2,4.3c-1,1.1-2,2.2-2,2.2c-1,1.1-3.1,1.2-4.3,0.2c0,0,0,0,0.1,2.1
	c1.1,1,1.2,3.1,1.3,5.3c1.1,1,2.2,2,3.3,3c1.1,1,0.1,2.1,0.2,4.3c1.1,1,2.2,2,3.3,3c1-1.1,2-2.2,4.3-0.2c1-1.1,1-1.1,2-2.2
	c1-1.1,2-2.2,3.1-1.2c1.1,1,1.1,1,0.1,2.1c0.1,2.1,2.2,2,4.4,1.9c2.1-0.1,2.2,2,2.2,2l1-1.1c-0.1-2.1-1.2-3.1,0.8-5.4
	c1-1.1,1-1.1,1-1.1c2.1-0.1,1.2,3.1,2.3,4.2c1.1,1,1.1,1,1.1,1l1.1,1c2.1-0.1,2.2,2,3.3,3c0,0,0,0,1.1,1c1-1.1,2.1-0.1,2.1-0.1
	c4.3-0.2,5.5,2.9,7.7,5c2.1-0.1,3.1-1.2,4.3-0.2l1.1,1c1-1.1,2.1-0.1,2.1-0.1c1-1.1,2-2.2,3-3.3c1-1.1,2-2.2,3.1-1.2
	c1.1,1,1.2,3.1,0.2,4.3c-1,1.1-2,2.2-0.9,3.2c1.1,1,1.1,1,2.2,2c3.2,0.9,2.2,2,2.3,4.2c-1,1.1-1,1.1-2,2.2c-1,1.1,0.1,2.1-0.9,3.2
	c0,0,0,0-1,1.1c1.1,1,1.2,3.1,1.2,3.1c1-1.1,2-2.2,3-3.3c3.1-1.2,4.2-2.3,7.3-3.5c1-1.1,2.1-0.1,2.1-0.1l1.1,1l1.1,1
	c2.1-0.1,1.1,1,1.1,1c1.1,1,2-2.2,4.3-0.2c1.1,1-0.9,3.2-1.9,4.4l-1,1.1c0,0,0,0,1.1,1C256.9,114.4,256.9,114.4,258,115.4z
	 M52.6,237.8C52.6,237.8,51.4,236.8,52.6,237.8C51.4,236.8,51.4,236.8,52.6,237.8z M56.8,237.6C55.7,236.6,55.7,236.6,56.8,237.6
	C55.7,236.6,55.7,236.6,56.8,237.6C55.7,236.6,55.7,236.6,56.8,237.6z M28.1,284.7C29.2,285.8,28.1,284.7,28.1,284.7L28.1,284.7z
	 M33.1,277C34.2,278.1,34.2,278.1,33.1,277C34.2,278.1,34.2,278.1,33.1,277z M47.5,265.7C46.5,266.8,46.5,266.8,47.5,265.7
	C46.5,266.8,46.5,266.8,47.5,265.7z M72.8,282.7C72.8,282.7,71.8,283.8,72.8,282.7C71.8,283.8,72.8,282.7,72.8,282.7z M116.1,273.3
	C116.1,273.3,115,272.3,116.1,273.3L116.1,273.3z M193.6,221.8C194.8,222.8,194.8,222.8,193.6,221.8
	C194.8,222.8,194.8,222.8,193.6,221.8C194.8,222.8,194.8,222.8,193.6,221.8z M156.9,257.5c0,0-1.1-1-2.1,0.1l1.1,1l1.1,1
	C158,258.6,158,258.6,156.9,257.5z M92.4,268C92.4,268,91.2,266.9,92.4,268L92.4,268z M93.5,269C92.4,268,92.4,268,93.5,269
	C92.4,268,92.4,268,93.5,269z M188.7,184.7C189.7,183.5,189.7,183.5,188.7,184.7C188.6,182.5,187.6,183.6,188.7,184.7
	c-1.1-1-2.1,0.1-2.1,0.1C187.6,183.6,187.6,183.6,188.7,184.7z M187.1,195.4C187.2,197.5,187.2,197.5,187.1,195.4
	c-1,1.1-1,1.1-2,2.2l1.1,1C187.2,197.5,188.2,196.4,187.1,195.4z M86.3,252.2C85.2,251.2,85.2,251.2,86.3,252.2
	C85.2,251.2,86.3,252.2,86.3,252.2S85.2,251.2,86.3,252.2z M90.4,249.9C90.4,249.9,91.6,250.9,90.4,249.9
	C91.6,250.9,90.4,249.9,90.4,249.9C91.6,250.9,91.6,250.9,90.4,249.9z M191.3,170.7C191.3,170.7,192.3,169.6,191.3,170.7l-1.1-1
	C190.1,169.7,190.1,169.7,191.3,170.7z M194.6,218.5C194.6,218.5,193.4,217.5,194.6,218.5C193.4,217.5,194.6,218.5,194.6,218.5z
	 M109.9,277.8c-1.1-1-3.2-0.9-3.2-0.9s0,0-1,1.1c0,0,0,0-1,1.1l1.1,1c2.1-0.1,4.3-0.2,6.4-0.3C111.1,281,110,279.9,109.9,277.8
	C110,279.9,110,279.9,109.9,277.8C109.9,277.8,111,278.8,109.9,277.8z M200,85C200,85,201.2,86,200,85c1.1,1,1.1,1,2.1-0.1
	c0,0,0,0,1-1.1c-1.1-1-1.1-1-0.1-2.1C201.1,83.9,201.1,83.9,200,85z M198.1,89.3C198.1,89.3,199.2,90.3,198.1,89.3
	C199.2,90.3,199.2,90.3,198.1,89.3z M172.2,82C173.3,83,172.2,82,172.2,82L172.2,82z M118.9,82.3C119.9,81.2,119.9,81.2,118.9,82.3
	C119.9,81.2,119.9,81.2,118.9,82.3C119.9,81.2,119.9,81.2,118.9,82.3z M106.8,75.3C107.8,74.2,107.8,74.2,106.8,75.3
	C108.9,75.3,108.9,75.3,106.8,75.3C108.9,75.3,106.8,75.3,106.8,75.3z M100.3,73.5C100.3,73.5,99.2,72.5,100.3,73.5
	C99.2,72.5,99.2,72.5,100.3,73.5C99.2,72.5,100.3,73.5,100.3,73.5z M101.7,103.3C102.7,102.2,102.7,102.2,101.7,103.3
	C102.7,102.2,102.8,104.3,101.7,103.3z M92,100.5C93,99.4,93,99.4,92,100.5C93,99.4,93,99.4,92,100.5z M92.9,119.7
	C92.9,119.7,93.9,118.6,92.9,119.7C93.9,118.6,93.9,118.6,92.9,119.7C93.9,118.6,93.9,118.6,92.9,119.7z M78.7,180.1
	C77.5,179.1,78.7,180.1,78.7,180.1L78.7,180.1z M77.6,181.2C78.7,180.1,78.7,180.1,77.6,181.2C78.7,180.1,78.7,180.1,77.6,181.2
	C78.7,180.1,78.7,180.1,77.6,181.2z M53.1,203.6C53.1,203.6,54.1,202.5,53.1,203.6C54.1,202.5,54.1,202.5,53.1,203.6
	C54.1,202.5,53.1,203.6,53.1,203.6z M43.6,205.1C44.6,204,44.6,204,43.6,205.1C43.6,205.1,44.6,204,43.6,205.1z M48.3,215.6
	C48.3,215.6,49.4,216.6,48.3,215.6L48.3,215.6z M68.8,242.4c1-1.1,3.1-1.2,3.1-1.2c1-1.1,1-1.1,2-2.2c-1.1-1-2.1,0.1-4.3,0.2
	c-2.1,0.1-1.1-1-2.2-2c0,0-2.1,0.1-3.1,1.2c-1,1.1-1,1.1-2,2.2c0,0,0,0-1,1.1l1.1,1c0,0,1-1.1,2.1-0.1l1.1,1
	C65.5,241.4,67.7,241.3,68.8,242.4C67.7,241.3,67.7,241.3,68.8,242.4z M68.2,252C68.2,252,69.2,250.9,68.2,252
	C69.2,250.9,68.2,252,68.2,252z M77.9,254.7C77.9,254.7,76.8,253.7,77.9,254.7C75.8,254.8,75.8,254.8,77.9,254.7
	C75.8,254.8,76.8,253.7,77.9,254.7z M76.8,253.7C75.7,252.7,75.7,252.7,76.8,253.7C75.7,252.7,75.7,252.7,76.8,253.7
	C75.7,252.7,75.7,252.7,76.8,253.7C75.7,252.7,75.7,252.7,76.8,253.7z M101.1,318.7C101.1,318.7,100,317.7,101.1,318.7
	C100,317.7,100,317.7,101.1,318.7z M102.6,328.3C103.8,329.3,103.8,329.3,102.6,328.3C103.8,329.3,103.8,329.3,102.6,328.3
	C103.8,329.3,103.8,329.3,102.6,328.3z M99.3,325.2C99.3,325.2,100.4,326.2,99.3,325.2L99.3,325.2z M100.2,322
	c-1.1-1-2.1,0.1-2.1,0.1S99.2,323.1,100.2,322z M103.3,318.6C102.2,319.8,102.2,319.8,103.3,318.6
	C102.2,319.8,102.2,319.8,103.3,318.6z M107.2,312.1C107.2,312.1,106.2,313.2,107.2,312.1C106.2,313.2,106.2,313.2,107.2,312.1z
	 M112.7,315C113.8,316,113.8,316,112.7,315L112.7,315z M114.7,312.8C115.8,313.8,115.8,313.8,114.7,312.8L114.7,312.8z M117.5,280.7
	C117.5,280.7,116.5,281.8,117.5,280.7L117.5,280.7z M114.9,270.1C113.8,271.2,113.8,271.2,114.9,270.1
	C113.8,271.2,113.8,271.2,114.9,270.1C113.8,271.2,113.8,271.2,114.9,270.1z M132.1,273.6c-2.1,0.1-2.1,0.1-2.1,0.1
	C132.1,273.6,132.1,273.6,132.1,273.6z M133,270.4C131.9,269.4,130.9,270.5,133,270.4C130.9,270.5,130.9,270.5,133,270.4
	C130.9,270.5,131.9,269.4,133,270.4z M146.3,280.4C147.4,281.4,147.4,281.4,146.3,280.4C147.4,281.4,147.4,281.4,146.3,280.4
	C147.4,281.4,146.3,280.4,146.3,280.4z M140.6,273.2C139.6,274.3,139.6,274.3,140.6,273.2C139.6,274.3,139.6,274.3,140.6,273.2
	C139.6,274.3,139.6,274.3,140.6,273.2z M143.9,276.3C142.8,275.3,142.8,275.3,143.9,276.3L143.9,276.3z M139.4,270.1
	C138.3,269.1,139.4,270.1,139.4,270.1C138.3,269.1,138.3,269.1,139.4,270.1z M141.2,263.6C142.3,264.6,142.3,264.6,141.2,263.6
	L141.2,263.6z M146.4,260.2C146.4,260.2,145.3,259.1,146.4,260.2C144.3,260.3,144.3,260.3,146.4,260.2
	C144.3,260.3,145.3,259.1,146.4,260.2z M149.6,261.1C148.5,260.1,148.5,260.1,149.6,261.1C148.5,260.1,148.5,260.1,149.6,261.1z
	 M153.8,258.8C152.8,259.9,152.8,259.9,153.8,258.8c0.1,2.1,0.1,2.1-1,1.1c1.1,1,0.1,2.1,1.2,3.1l-0.1-2.1
	C153.9,260.9,153.9,260.9,153.8,258.8z M175.4,264.2C174.3,265.3,174.3,265.3,175.4,264.2L175.4,264.2z M177.3,259.8
	C177.3,259.8,176.3,260.9,177.3,259.8C176.3,260.9,176.3,260.9,177.3,259.8C176.3,260.9,176.3,260.9,177.3,259.8z M187.9,259.3
	C187.9,259.3,186.9,260.4,187.9,259.3C186.9,260.4,187.9,259.3,187.9,259.3z M183.1,246.8C183.1,246.8,182,245.7,183.1,246.8
	c-1.1-1-1.1-1-1.1-1C183,244.6,184.1,245.6,183.1,246.8z M181.7,239.4C180.6,238.3,180.6,238.3,181.7,239.4
	C180.6,238.3,180.6,238.3,181.7,239.4z M218.8,212.1C217.8,213.2,218.9,214.2,218.8,212.1C218.9,214.2,218.9,214.2,218.8,212.1
	C218.9,214.2,219.9,213.1,218.8,212.1z M211.9,201.7C211.9,201.7,210.9,202.8,211.9,201.7C210.9,202.8,211.9,201.7,211.9,201.7z
	 M234.1,197.5C235.2,198.5,234.1,197.5,234.1,197.5L234.1,197.5z M250.6,208.5C251.7,209.5,251.7,209.5,250.6,208.5L250.6,208.5z
	 M235.8,188.9C233.7,189,233.7,189,235.8,188.9C233.7,189,233.7,189,235.8,188.9C233.7,189,234.8,190,235.8,188.9z M249.7,189.3
	C250.7,188.2,249.7,189.3,249.7,189.3L249.7,189.3z M264.1,200.4C263.1,201.5,264.1,200.4,264.1,200.4L264.1,200.4z M253.6,180.6
	C253.6,180.6,252.5,179.6,253.6,180.6C252.5,179.6,252.5,179.6,253.6,180.6C252.5,179.6,253.6,180.6,253.6,180.6z M255.7,180.5
	C254.7,181.7,254.7,181.7,255.7,180.5C254.7,181.7,255.8,182.7,255.7,180.5z M257.6,176.2C257.6,176.2,256.5,175.2,257.6,176.2
	C256.5,175.2,256.5,175.2,257.6,176.2C256.5,175.2,256.5,175.2,257.6,176.2C256.5,175.2,257.6,176.2,257.6,176.2z M265.8,144.9
	l-2.1,0.1c0,0,0,0-1,1.1c0,0,0,0,1.1,1l1.1,1C264.8,146,264.8,146,265.8,144.9z M252.1,126.3C251.1,127.4,251.1,127.4,252.1,126.3
	C251.1,127.4,251.1,127.4,252.1,126.3C251.1,127.4,251.1,127.4,252.1,126.3z M163,295.7c0,0,0.1,2.1,1.2,3.1c1-1.1,0.9-3.2,1.9-4.4
	c0,0-0.1-2.1,0.9-3.2c1-1.1-0.1-2.1-1.2-3.1c-1,1.1-3,3.3-1.9,4.4C163,295.7,163,295.7,163,295.7z M67.8,176.3c1.1,1,1.1,1,3.2,0.9
	c1-1.1,1-1.1-0.1-2.1C68.8,175.2,68.8,175.2,67.8,176.3C66.7,175.3,67.8,176.3,67.8,176.3z M75.5,136.5
	C73.4,136.6,73.4,136.6,75.5,136.5c-1,1.1-1,1.1-1,1.1s1.1,1,2.1-0.1C75.5,136.5,75.5,136.5,75.5,136.5z M255.4,82.4
	C256.4,81.3,255.4,82.4,255.4,82.4c-3.1,1.2-3.1,1.2-2,2.2c1.1,1,1.1,1,2.1-0.1C255.5,84.6,256.5,83.5,255.4,82.4z M291.8,176.8
	c1-1.1,3.2,0.9,3.1-1.2C294.9,175.6,293.8,174.5,291.8,176.8z M252,101.8c1.1,1,1-1.1,1-1.1C251.9,99.7,252,101.8,252,101.8z
	 M291.2,164c-1,1.1-1,1.1-2,2.2c-1,1.1-0.9,3.2,0.2,4.3c2.1-0.1,4.2-2.3,5.2-3.4c1-1.1,0.9-3.2-0.2-4.3
	C294.2,160.7,292.1,160.8,291.2,164z M238.6,293.3c1.1,1,2.2,2,3.2,0.9c1-1.1-0.1-2.1-0.2-4.3c-1.1-1-4.4-1.9-5.5-3
	C236.3,289.1,237.5,292.3,238.6,293.3z M278.7,171l-1,1.1c0.1,2.1,3.3,3,5.5,3c1-1.1,3.2,0.9,3.1-1.2c-0.1-2.1-1.2-3.1-3.3-3
	C281.9,169.8,280.8,170.9,278.7,171z M186.5,274.3c0,0-0.1-2.1-1.1-1C184.3,272.3,185.4,273.3,186.5,274.3c-1,1.1-0.9,3.2,0.2,4.3
	c1.1,1,1.1,1,2.1-0.1c3.1-1.2,2-2.2,0.9-3.2C188.6,274.2,188.6,274.2,186.5,274.3z M214.3,252.8c-1,1.1-3,3.3-2.9,5.5
	c1.1,1,2.1-0.1,3.1-1.2c2.1-0.1,1-1.1-0.1-2.1C215.5,255.9,214.4,254.9,214.3,252.8z M296.9,148.8c2.1-0.1,3.1-1.2,3-3.3
	c1-1.1-0.1-2.1-0.1-2.1c-2.1,0.1-3.1,1.2-4.2,2.3C296.8,146.7,296.9,148.8,296.9,148.8z M266,126.8c-2.1,0.1-3.1,1.2-2,2.2
	c-0.9,3.2,0.2,4.3,3.3,3c1-1.1,2-2.2,1.9-4.4c0,0,1-1.1-1.1-1C268.1,126.7,268.1,126.7,266,126.8z M244.3,255.7
	c-1,1.1,0.1,2.1,0.1,2.1c1.1,1,2.1-0.1,3.1-1.2c1-1.1-0.1-2.1-0.1-2.1C245.3,254.6,245.3,254.6,244.3,255.7z M301.2,217.9l1.1,1
	c1.1,1,2.1-0.1,3.1-1.2c-0.1-2.1-0.1-2.1-2.2-2C301.1,215.8,301.1,215.8,301.2,217.9z M279.2,159.2c1-1.1,1-1.1-0.1-2.1
	c-1.1-1-2.2-2-3.2-0.9c-1,1.1,0.1,2.1,1.2,3.1C278.2,160.3,279.3,161.3,279.2,159.2z M277.4,210.5c1.1,1,2.1-0.1,2.1-0.1
	c1-1.1,1-1.1-0.1-2.1c-1.1-1-2.1,0.1-2.1,0.1C276.2,209.5,277.4,210.5,277.4,210.5z M238.6,270.9c0.1,2.1,0.2,4.3,0.3,6.4l1.1,1
	l1-1.1c0,0,1-1.1-0.1-2.1c1-1.1-0.1-2.1-0.2-4.3c-0.1-2.1,0.9-3.2-1.2-3.1C238.4,266.6,238.5,268.8,238.6,270.9z M275.5,217
	c0.1,2.1,0.1,2.1,2.2,2c0,0,1.1,1,2.1-0.1c1-1.1-0.1-2.1-2.2-2C277.7,216.9,276.5,215.8,275.5,217z M313.7,121.4
	c-1,1.1-1,1.1,0.1,2.1l1-1.1c1-1.1,1-1.1-0.1-2.1L313.7,121.4z M201.3,271.5c-1,1.1,0.1,2.1,1.2,3.1c0,0,1.1,1,2.1-0.1
	C204.5,272.4,204.5,272.4,201.3,271.5C203.4,271.4,201.3,271.5,201.3,271.5z M300.1,149.7C299.1,150.8,299.1,150.8,300.1,149.7
	c0.1,2.1,2.2,2,2.2,2c1-1.1,1-1.1-0.1-2.1C301.1,148.6,300.1,149.7,300.1,149.7z M286.7,113C287.8,114,286.8,115.1,286.7,113
	c1.1,1,2.1-0.1,2.1-0.1s0,0-1.1-1C287.7,111.9,287.7,111.9,286.7,113z M207.1,77.2c1-1.1,1.9-4.4,1.9-4.4s1-1.1-0.1-2.1
	c0,0-0.1-2.1-1.2-3.1c-1,1.1-0.9,3.2-1.9,4.4l0.1,2.1C204.9,75.1,206,76.2,207.1,77.2z M274.6,83.7c-1,1.1-1,1.1-2,2.2
	c-1,1.1-1,1.1,0.1,2.1C274.8,88,274.7,85.8,274.6,83.7z M308.2,185.6c1.1,1,1.1,1,2.1-0.1c0,0,0,0,1-1.1
	C309.2,184.5,308.1,183.5,308.2,185.6C307.1,184.6,307.1,184.6,308.2,185.6z M251.8,234c-1,1.1-1,1.1,0.1,2.1c1-1.1,1-1.1,0.9-3.2
	C251.7,231.9,250.7,233,251.8,234z M303.6,224.2l1.1,1c0,0,1.1,1,2.1-0.1c0,0-0.1-2.1-1.1-1C304.6,223.1,303.6,224.2,303.6,224.2z
	 M126.4,288.8C126.4,288.8,127.4,287.7,126.4,288.8c3.1-1.2,3.1-1.2,2-2.2c-1.1-1-1.1-1-2.1,0.1
	C126.3,286.7,125.3,287.8,126.4,288.8z M271.3,58.3c-1,1.1-2,2.2-0.9,3.2c0,0,0,0,1-1.1l1-1.1l1-1.1c0,0,1-1.1-0.1-2.1
	C271.2,56.1,270.2,57.2,271.3,58.3z M236.4,246.5c0.1,2.1,1.1,1,1.1,1C238.5,246.4,238.5,246.4,236.4,246.5
	C237.4,245.4,237.4,245.4,236.4,246.5z M224.1,235.3c-1,1.1-3.1,1.2-3,3.3C223.2,238.5,224.2,237.4,224.1,235.3z M250.3,246.9
	C249.3,248,249.3,248,250.3,246.9C250.4,249,250.4,249,250.3,246.9c0.1,2.1,0.1,2.1,1.2,3.1c1-1.1-0.1-2.1-0.1-2.1
	C252.4,246.8,252.4,246.8,250.3,246.9z M262.9,105.6c-1,1.1-2,2.2-0.9,3.2c1.1,1,1.1,1,2.1-0.1c1-1.1,0.9-3.2,0.9-3.2
	C263.9,104.5,262.9,105.6,262.9,105.6z M294.5,211.8c0,0-1.1-1-2.1,0.1c-1,1.1,0.1,2.1,1.2,3.1c1.1,1,3.2,0.9,6.5,1.8
	C296.7,213.9,295.6,212.8,294.5,211.8z M269.7,115.9c-1.2-3.1-2.1,0.1-2.1,0.1c-1,1.1,0.1,2.1,0.1,2.1
	C269.8,118,270.9,116.9,269.7,115.9z M278.3,162.4c-2.1,0.1-1,1.1-1,1.1C278.4,164.6,278.4,164.6,278.3,162.4
	C279.4,163.5,278.3,162.4,278.3,162.4z M213,247.5c-1.1-1-1.2-3.1-3.2-0.9l-1,1.1c1.2,3.1,1.2,3.1,4.4,1.9
	C213.1,249.7,214.1,248.5,213,247.5z M270.1,124.4c1-1.1,1-1.1,2-2.2l-1.1-1C270,122.3,271.2,123.3,270.1,124.4z M270.8,228.9
	c-1.1-1-1.1-1-2.2-2C268.5,226.9,269.6,227.9,270.8,228.9z M273,230.9c0.1,2.1,1.1,1,1.2,3.1c-2,2.2-0.9,3.2,1.2,3.1
	c2.1-0.1,2.1-0.1,2-2.2l-1.1-1C274.1,232,274.1,232,273,230.9z M261.2,230.4C262.3,231.4,262.3,231.4,261.2,230.4
	c2.1-0.1,3.1-1.2,3.1-1.2C263.3,228.2,263.3,228.2,261.2,230.4C260.1,229.4,261.2,230.4,261.2,230.4z M276.6,79.4
	C277.7,80.4,277.7,80.4,276.6,79.4c2.2,2,2.1-0.1,3.1-1.2c0,0-1.1-1-2.1,0.1L276.6,79.4z M216.7,236.7c-1,1.1-0.9,3.2,0.2,4.3
	c0,0-1,1.1,0.1,2.1c1-1.1,2-2.2,1.9-4.4c-0.1-2.1-0.1-2.1-0.2-4.3C216.6,234.6,216.7,236.7,216.7,236.7z M239.1,236.7
	c-1.1-1-1.1-1-2.1,0.1C238.1,237.9,238.1,237.9,239.1,236.7C238.1,237.9,239.2,238.9,239.1,236.7z M293.3,186.3c1.1,1,1.1,1,1.1,1
	C295.4,186.2,294.3,185.2,293.3,186.3z M223.1,303.6C224.2,304.6,224.2,304.6,223.1,303.6C225.2,303.5,224.1,302.5,223.1,303.6
	C224.1,302.5,223.1,303.6,223.1,303.6z M284.1,149.4C284.1,149.4,285.1,148.3,284.1,149.4C285.1,148.3,285.1,148.3,284.1,149.4
	C284,147.3,284,147.3,284.1,149.4C283,148.4,283,148.4,284.1,149.4z M316.8,142.6C317.9,141.5,317.9,141.5,316.8,142.6
	c1-1.1,1-1.1,1-1.1C316.7,140.4,316.7,140.4,316.8,142.6z M290.3,100.1C289.3,101.2,289.3,101.2,290.3,100.1
	C290.4,102.2,291.4,101.1,290.3,100.1z M266.9,78.7C266.9,78.7,265.9,79.8,266.9,78.7c-1,1.1-1,1.1-1,1.1S267,80.9,266.9,78.7
	C265.9,79.8,266.9,78.7,266.9,78.7z M273.1,165.9C273.1,165.9,272.1,167,273.1,165.9C272.1,167,273.2,168,273.1,165.9
	C273.2,168,273.2,168,273.1,165.9C273.2,168,274.3,166.9,273.1,165.9z M255.1,98.5C253.9,97.4,253.9,97.4,255.1,98.5
	c-1,1.1-1,1.1-1,1.1C255.1,98.5,255.1,98.5,255.1,98.5z M16.7,154.1C15.6,155.2,15.6,155.2,16.7,154.1L16.7,154.1z M54.6,257.9
	C55.7,259,55.7,259,54.6,257.9L54.6,257.9z M164,272.2C164,272.2,163,273.3,164,272.2C165.1,273.2,165.1,273.2,164,272.2
	C165.1,273.2,164,272.2,164,272.2z M42.7,141.2C43.8,142.2,43.8,142.2,42.7,141.2C43.8,142.2,43.8,142.2,42.7,141.2z M45.7,227.4
	C46.8,228.4,46.8,228.4,45.7,227.4C46.7,226.3,46.7,226.3,45.7,227.4C45.6,225.3,45.6,225.3,45.7,227.4z M59.5,250.2
	C59.5,250.2,58.4,249.2,59.5,250.2c-1.1-1-1.1-1-1.1-1C56.3,249.3,57.4,250.3,59.5,250.2C57.4,250.3,59.5,250.2,59.5,250.2z
	 M65.5,241.4l1.1,1l1-1.1C66.5,240.3,65.4,239.3,65.5,241.4C65.4,239.3,64.4,240.4,65.5,241.4z M6,199.4c2.1-0.1,3.1-1.2,3-3.3
	c1-1.1,2-2.2-0.2-4.3c-1.1-1-3.1,1.2-4.2,2.3c-1,1.1-2,2.2-3,3.3c0.1,2.1-3,3.3-0.8,5.4C2.9,202.7,5,200.5,6,199.4z M20.3,185.9
	c3.2,0.9,5.3-1.3,6.2-4.5c-1.2-3.1-3.3-3-6.4,0.3c-1,1.1-2,2.2-3,3.3l-1,1.1C19.3,187,19.3,187,20.3,185.9z M99.7,150.3
	c1.1,1,2.2,2,4.3-0.2c2-2.2,0.9-3.2-1.3-5.3c-1.1-1-1.1-1-2.1,0.1l-1.1-1c0,0-1.1-1-2.1,0.1l0.1,2.1
	C98.4,147.2,98.5,149.3,99.7,150.3z M236.4,87.6c-1,1.1-2,2.2,0.1,2.1c1.1,1,3.2,0.9,4.3-0.2c1-1.1,2-2.2,0.9-3.2
	C238.5,85.4,237.3,84.3,236.4,87.6z M50.2,141.9c3.1-1.2,4.2-2.3,5.1-5.6c0,0,1-1.1-0.1-2.1c-3.2-0.9-3.3-3-5.5-2.9
	c-1.1-1-3.2-0.9-4.3,0.2c0,0,1.2,3.1,3.3,3c1.1,1,3.2,0.9,3.2,0.9l-1,1.1c-5.3,1.3-4.1,4.4-5,7.7C47.1,143.1,49.2,143,50.2,141.9z
	 M159.4,37.8c1-1.1-0.1-2.1-0.1-2.1c-3.2-0.9-3.1,1.2-4.1,4.5C156.2,36.8,158.5,41,159.4,37.8z M94,51.4c1-1.1,0.9-3.2-0.2-4.3
	c-1.1-1-0.1-2.1-2.2-2c-1.1-1-2.2-2-2.1,0.1c0.1,2.1,1.2,3.1,1.2,3.1C91.8,51.5,93,52.5,94,51.4z M57.7,165c1-1.1,3.1-1.2,2-2.2
	l-1.1-1c-2.1,0.1-2.1,0.1-2,2.2c-1,1.1-2,2.2-3,3.3c1-1.1,2-2.2,3.1-1.2C56.6,164,56.6,164,57.7,165z M170.6,25.5
	c1-1.1,2.1-0.1,2-2.2c-1,1.1-3.1,1.2-3.1,1.2s-1,1.1-2.1,0.1c-1.1-1-3.2-0.9-3.1,1.2c0.1,2.1,1.1,1,2.2,2
	C168.6,27.8,169.6,26.6,170.6,25.5z M181.4,51.7c1-1.1,1-1.1-0.1-2.1s-2.1,0.1-3.1,1.2c-1,1.1-1,1.1,0.1,2.1
	C179.4,53.9,180.4,52.8,181.4,51.7z M28.5,134.4c0,0,2.1-0.1,1-1.1c1-1.1-1.1-1-1.1-1c-1.1-1-2.2-2-4.3,0.2l-1,1.1
	C22.1,134.7,23.3,135.7,28.5,134.4z M110.7,44.2c0,0-2.1,0.1-1,1.1c0.1,2.1,2.2,2,3.3,3C111.8,45.3,112.8,44.2,110.7,44.2z
	 M56.7,188.5l1-1.1l-1.1-1c-1.1-1-1.1-1-2.1,0.1c-1,1.1,0.1,2.1,1.2,3.1C55.5,187.5,56.7,188.5,56.7,188.5z M79.4,105.4
	c1-1.1-0.1-2.1-0.1-2.1c-1.1-1-2.2-2-3.2-0.9c-1,1.1,1.1,1,1.1,1C79.4,105.4,79.4,105.4,79.4,105.4z M106.5,46.6
	c1-1.1-0.1-2.1-0.2-4.3c0,0-1.1-1-2.1,0.1C103.3,45.7,104.4,46.7,106.5,46.6C105.5,47.7,105.5,47.7,106.5,46.6z M56.2,133.1
	c-1,1.1,0.1,2.1,0.1,2.1s-1,1.1,0.1,2.1c0,0,0,0,1.1,1c0,0-1,1.1,0.1,2.1c0.1,2.1,2.2,2,4.5,4.1l1.1,1c0,0,0,0,1.1,1c0,0,0,0,1.1,1
	c0,0,0,0,1.1,1c4.6,6.2,6.7,6.1,8.8,6c2.1-0.1,3.1-1.2,2-2.2c-1.1-1-2.2-2-4.4-1.9c-1,1.1-1,1.1-2,2.2c0,0-1.1-1-0.1-2.1
	c0,0,0,0-1.1-1c0,0,0,0-1.1-1c0,0,0,0-1.1-1c2.1-0.1,3.1-1.2,3-3.3c-0.2-4.3-2.3-4.2-4.5-4.1c0,0,0,0,1-1.1c0,0,0,0-1.1-1l-1.1-1
	c0,0,0,0-1.1-1c2-2.2-0.1-2.1-1.2-3.1C57.2,132,55.1,132.1,56.2,133.1z M180.4,8c-2,2.2-3,3.3-2.9,5.5
	C179.5,11.3,180.5,10.1,180.4,8z M129.8,18.9c0.1,2.1,1.2,3.1,4.5,4.1C133,19.8,131.9,18.8,129.8,18.9z M4.1,158.9
	C5.1,157.8,5.1,157.8,4.1,158.9c-1.1-1-2.2-2-3.2-0.9c-1,1.1-1,1.1,0.1,2.1C3.1,160,3.1,160,4.1,158.9z M75.4,109.8
	c-0.1-2.1-2.2-2-2.2-2c-1,1.1-1,1.1,0.1,2.1C73.2,109.9,74.4,110.9,75.4,109.8z M16.3,192.5c1-1.1,1-1.1-0.1-2.1
	c-1.1-1-1.1-1-2.1,0.1C14.1,190.5,15.2,191.5,16.3,192.5C15.3,193.6,16.3,192.5,16.3,192.5z M38.5,210.7l1-1.1
	c2-2.2,0.9-3.2-1.2-3.1s-2,2.2-1.9,4.4C36.5,212.9,37.5,211.8,38.5,210.7z M215.1,64c-2,2.2-2,2.2,0.2,4.3c1.1,1,2.1-0.1,2-2.2
	C218.3,64.9,217.2,63.9,215.1,64z M125.9,50c-1.1-1-0.1-2.1-2.2-2c-1,1.1-1,1.1-0.9,3.2c0,0,0.1,2.1,2.2,2
	C126,52.1,124.9,51.1,125.9,50z M136.5,2.6c1-1.1-0.1-2.1-0.1-2.1s-1.1-1-2.1,0.1C134.2,0.5,133.2,1.6,136.5,2.6
	C134.3,2.6,134.3,2.6,136.5,2.6z M61.2,194.7c2.1-0.1,1-1.1,1-1.1C61.1,192.6,61.1,192.6,61.2,194.7
	C60.1,193.7,60.1,193.7,61.2,194.7z M53.1,248.4C53.1,248.4,51.9,247.4,53.1,248.4c-2.1,0.1-1,1.1-1,1.1S52,249.5,53.1,248.4
	C53.2,250.5,53.1,248.4,53.1,248.4z M21.5,236c2.1-0.1,3.1-1.2,3-3.3l-1.1-1c0,0-1,1.1-2,2.2C20.4,235,20.4,235,21.5,236
	C20.5,237.1,21.5,236,21.5,236z M97.6,38.4c-1.1-1-1.1-1-1.1-1C95.5,38.5,96.6,39.6,97.6,38.4C96.6,39.6,97.6,38.4,97.6,38.4z
	 M44.8,185.9c-0.1-2.1-1.1-1-1.1-1S42.7,186,44.8,185.9C43.8,187,44.8,185.9,44.8,185.9z M178.8,18.8c-1,1.1-1,1.1-1,1.1
	C178.9,20.9,178.9,20.9,178.8,18.8C179.9,19.8,178.8,18.8,178.8,18.8z M170.8,7.4c-1,1.1-1,1.1-1,1.1C170.9,9.5,170.9,9.5,170.8,7.4
	z M25.3,247.5C25.3,247.5,24.2,246.5,25.3,247.5c-2.1,0.1-1,1.1-1,1.1S24.3,248.7,25.3,247.5C25.4,249.7,25.3,247.5,25.3,247.5z
	 M47.4,127.1c1.1,1,3.2,0.9,4.3-0.2c-2.2-2-4.4-1.9-6.5-1.8c0,0-2.1,0.1-1,1.1l1.1,1C46.3,126.1,47.4,127.1,47.4,127.1z M73.4,89.7
	c-1.1-1-1.1-1-1.1-1S71.2,89.8,73.4,89.7C72.3,90.8,72.3,90.8,73.4,89.7z" fill="#fff" />
</svg>
