<svg width="126" height="30" viewBox="0 0 126 30" fill="none" xmlns="http://www.w3.org/2000/svg">
<g clip-path="url(#clip0)">
<path d="M13.596 14.2698L0.357007 27.9919C0.119002 27.6572 0 27.2008 0 26.6531V2.2211C0 1.55172 0.178504 1.03448 0.47601 0.699797L13.596 14.2698ZM14.072 13.783L18.1479 9.55375L2.73705 0.578093C2.11229 0.212982 1.51728 0.15213 1.04127 0.30426L14.072 13.783ZM14.072 14.7566L0.833017 28.4483C1.33878 28.7221 1.99329 28.6917 2.73705 28.2657L18.3561 19.1988L14.072 14.7566ZM23.8005 12.8398L18.7726 9.91886L14.548 14.2698L18.9511 18.8337L23.8005 16.0345C25.3178 15.1521 25.3178 13.7221 23.8005 12.8398ZM67.5041 21.0548C67.5041 23.7627 65.4216 25.7708 62.8928 25.7708C60.364 25.7708 58.2814 23.7627 58.2814 21.0548C58.2814 18.3164 60.364 16.3387 62.8928 16.3387C65.4216 16.3692 67.5041 18.3469 67.5041 21.0548ZM65.4811 21.0548C65.4811 19.3509 64.291 18.1947 62.8928 18.1947C61.4945 18.1947 60.3045 19.3509 60.3045 21.0548C60.3045 22.7282 61.4945 23.9148 62.8928 23.9148C64.2613 23.9148 65.4811 22.7586 65.4811 21.0548ZM57.4186 21.0548C57.4186 23.7627 55.3361 25.7708 52.8073 25.7708C50.2785 25.7708 48.196 23.7627 48.196 21.0548C48.196 18.3164 50.2785 16.3387 52.8073 16.3387C55.3659 16.3692 57.4186 18.3469 57.4186 21.0548ZM55.3956 21.0548C55.3956 19.3509 54.2056 18.1947 52.8073 18.1947C51.409 18.1947 50.219 19.3509 50.219 21.0548C50.219 22.7282 51.409 23.9148 52.8073 23.9148C54.2056 23.9148 55.3956 22.7586 55.3956 21.0548ZM47.3927 17.7992C47.4522 18.1643 47.5117 18.5903 47.5117 19.0467C47.5117 20.5375 47.1249 22.3935 45.8159 23.7018C44.5664 25.0406 42.9599 25.7404 40.8476 25.7404C36.9205 25.7404 33.5884 22.4544 33.5884 18.4381C33.5884 14.4219 36.8907 11.1359 40.8476 11.1359C43.0194 11.1359 44.5664 12.0183 45.7564 13.144L44.3879 14.5436C43.5549 13.7525 42.4243 13.1136 40.8773 13.1136C37.9915 13.1136 35.7602 15.4868 35.7602 18.4077C35.7602 21.3286 38.0213 23.7018 40.8773 23.7018C42.7516 23.7018 43.7929 22.9412 44.4771 22.2414C45.0424 21.6633 45.3994 20.8418 45.5482 19.716H40.8773V17.7079H47.3927V17.7992ZM90.0253 19.8986L83.8669 22.4848C84.3429 23.428 85.0569 23.9148 86.0982 23.9148C87.1395 23.9148 87.8535 23.3976 88.3593 22.6065L89.936 23.6714C89.4303 24.4321 88.2105 25.7404 86.0982 25.7404C83.4802 25.7404 81.5464 23.6714 81.5464 21.0243C81.5464 18.2252 83.5099 16.3083 85.89 16.3083C88.27 16.3083 89.4303 18.2556 89.817 19.2901L90.0253 19.8986ZM87.6453 19.1684C87.4072 18.5903 86.7527 18.1643 85.9495 18.1643C84.9082 18.1643 83.4802 19.0771 83.5397 20.9026L87.6453 19.1684ZM78.5416 11.6531H80.5646V25.4665H78.5416V11.6531ZM75.2393 16.643H77.1433V25.071C77.1433 28.5396 75.15 29.9696 72.77 29.9696C70.5387 29.9696 69.1999 28.4483 68.6941 27.2008L70.4494 26.4402C70.7767 27.2008 71.5204 28.1136 72.77 28.1136C74.2872 28.1136 75.2393 27.14 75.2393 25.3448V24.6755H75.1797C74.7335 25.2536 73.8707 25.7404 72.77 25.7404C70.4792 25.7404 68.3669 23.7018 68.3669 21.0548C68.3669 18.4077 70.4792 16.3387 72.77 16.3387C73.8707 16.3387 74.7335 16.8256 75.1797 17.4037H75.2393V16.643ZM75.388 21.0852C75.388 19.4422 74.317 18.2252 72.9187 18.2252C71.5204 18.2252 70.3602 19.4422 70.3602 21.0852C70.3602 22.7282 71.5204 23.9148 72.9187 23.9148C74.2872 23.9148 75.388 22.7282 75.388 21.0852ZM103.711 15.9432C103.711 18.5903 101.509 20.2333 99.2777 20.2333H96.4514V25.4665H94.4284V11.6531H99.248C101.509 11.6531 103.711 13.3266 103.711 15.9432ZM101.688 15.9432C101.688 14.8479 100.825 13.57 99.3372 13.57H96.4812V18.3164H99.3372C100.825 18.3164 101.688 17.0385 101.688 15.9432ZM115.908 20.1724V25.4665H113.945V24.4016H113.885C113.409 25.1318 112.666 25.7404 111.327 25.7404C109.542 25.7404 107.965 24.5538 107.965 22.6978C107.965 20.6592 109.928 19.5943 111.862 19.5943C112.814 19.5943 113.588 19.929 113.975 20.142V19.9899C113.945 18.8641 112.904 18.2252 111.862 18.2252C111.118 18.2252 110.404 18.4686 110.018 19.2292L108.233 18.4686C108.857 17.0081 110.375 16.3387 111.832 16.3387C114.123 16.3387 115.908 17.7079 115.908 20.1724ZM113.945 21.7241C113.409 21.4503 112.993 21.2677 112.1 21.2677C111.118 21.2677 109.958 21.6633 109.958 22.7586C109.958 23.5801 110.88 23.9452 111.535 23.9452C112.725 23.9148 113.796 23.002 113.945 21.7241ZM125.25 16.643L119.716 29.6653H117.604L119.657 25.0101L116.027 16.643H118.199L120.609 22.6369H120.668L122.989 16.643H125.25ZM104.811 11.6531H106.834V25.4665H104.811V11.6531ZM39.3898 0.851927C38.8543 0.334686 38.0808 0 37.2477 0C35.433 0 34.0347 1.49087 34.0347 3.34686C34.0347 5.17241 35.433 6.69371 37.2477 6.69371C39.0625 6.69371 40.2526 5.6288 40.2526 3.34686H37.4857V4.10751H39.3005C39.241 5.17241 38.408 5.87221 37.2775 5.87221C35.9387 5.87221 34.9272 4.74645 34.9272 3.37728C34.9272 2.00811 35.9387 0.882353 37.2775 0.882353C37.8725 0.882353 38.408 1.12576 38.7948 1.49087L39.3898 0.851927ZM41.4426 0.0608519V6.57201H45.3102V5.75051H42.3053V3.77282H44.8341V2.98174H42.3053V0.882353H45.2209V0.0608519H41.4426ZM46.0242 0.0608519V0.912779H47.958V6.57201H48.8207V0.912779H50.7545V0.0608519H46.0242ZM54.0271 0.0608519V6.57201H54.8898V0.0608519H54.0271ZM56.0204 0.0608519V0.912779H57.9542V6.57201H58.8169V0.912779H60.7507V0.0608519H56.0204ZM63.577 3.34686C63.577 5.17241 64.9753 6.69371 66.7901 6.69371C68.6049 6.69371 70.0329 5.20284 70.0329 3.34686C70.0329 1.49087 68.6346 0 66.7901 0C64.9753 0 63.577 1.49087 63.577 3.34686ZM64.4398 3.34686C64.4398 1.97769 65.4513 0.851927 66.7901 0.851927C68.1289 0.851927 69.1404 1.97769 69.1404 3.34686C69.1404 4.71602 68.1289 5.84179 66.7901 5.84179C65.4513 5.81136 64.4398 4.71602 64.4398 3.34686ZM75.9235 6.57201V0.0608519H75.0608V4.92901L72.2047 0.0608519H71.3419V6.57201H72.2047V1.67343L75.0905 6.57201H75.9235Z" fill="#212121"/>
</g>
<defs>
<clipPath id="clip0">
<rect width="125.25" height="30" fill="white"/>
</clipPath>
</defs>
</svg>
