<svg width="58" height="59" viewBox="0 0 58 59" fill="none" xmlns="http://www.w3.org/2000/svg">
<path d="M29 0.135986L15.9032 13.2328C15.0457 12.9209 14.1882 12.6871 13.2527 12.3752C13.2527 12.3752 13.5645 13.1548 14.422 14.7139L0 29.136L29 58.136L58 29.136L29 0.135986ZM16.5269 40.4398C15.9032 39.8941 14.578 37.1656 15.4355 35.7623C16.2151 34.3591 17.2285 33.7354 18.5538 33.5795C18.5538 33.5795 19.1774 35.2946 19.1774 36.308C19.1774 37.3215 19.2554 38.4908 20.0349 39.7381C20.8145 40.9854 21.1263 42.4666 21.1263 42.8564H17.2285C17.2285 42.4666 17.0726 40.9075 16.5269 40.4398ZM21.828 32.8C21.828 32.8 22.8414 32.2543 24.1667 32.4102C25.4919 32.5661 28.2984 32.6441 29.2339 32.0204C29.2339 32.0204 29.8575 34.0473 30.6371 34.9048C31.4167 35.7623 31.6505 37.3215 31.8844 38.5688C32.1183 39.7381 32.9758 41.6091 33.1317 43.0123H23.0753C23.0753 42.8564 22.8414 41.843 21.75 40.5957C20.5806 39.1924 20.1129 37.8672 20.4247 36.7758C20.8145 35.5285 22.0618 35.4505 21.828 32.8ZM35.3145 42.8564C35.1586 42.3887 34.6129 41.2973 33.8333 40.2059C32.8199 38.8027 32.7419 37.3994 32.7419 36.308C32.7419 35.2166 32.7419 32.8 32.7419 32.8C32.7419 32.8 33.9892 32.8779 34.7688 32.4881C35.5484 32.0984 36.4059 31.0849 38.043 30.929C39.6801 30.7731 40.5376 31.9424 40.7715 32.3322C41.0054 32.722 43.3441 35.0607 43.3441 35.0607H44.7473C44.7473 35.0607 44.8253 34.0473 44.1237 33.5795C43.3441 33.0338 42.0188 32.0984 41.629 31.5527C41.2392 31.007 40.2258 29.2139 38.1989 29.7596C36.172 30.3053 34.3011 30.3833 34.3011 30.3833C34.3011 30.3833 34.457 27.343 34.1452 26.4854C33.8333 25.55 33.8333 24.4586 34.5349 23.9129C34.5349 23.9129 35.5484 23.5231 35.3145 24.6145C35.0806 25.7059 34.6909 26.9532 35.4704 27.4989C35.4704 27.4989 35.7043 27.7328 36.0941 27.8887C36.4059 27.9666 37.1075 28.2005 37.1855 27.5768C37.2634 26.9532 37.5753 26.1736 38.043 25.6279C38.5107 25.0822 39.836 24.1467 40.1478 23.4451C40.4597 22.7435 41.0833 22.2758 41.5511 21.886C42.0188 21.5742 42.0188 20.8725 42.0188 20.8725C42.0188 20.8725 41.707 20.5607 41.3952 20.1709C41.0833 19.7811 39.914 18.6118 39.0564 17.9102C38.1989 17.2086 35.3925 16.1172 33.4436 17.9102C32.1183 19.0795 30.6371 21.5742 30.0134 23.1333C30.0134 23.1333 29.9355 24.5365 28.922 24.5365C27.9086 24.5365 27.5968 23.757 27.9086 22.9774C28.2204 22.1199 32.1183 17.9881 32.586 16.507C33.0538 15.1037 35.1586 11.3618 35.4704 8.39943L56.5188 29.4478L42.7984 42.8564H35.3145ZM29 1.53921L35.3145 7.85373C34.0672 8.55534 27.5968 12.2973 25.4919 19.4693C25.4919 19.4693 23.621 16.1172 16.9946 13.5446L29 1.53921ZM14.9677 15.5715C16.293 17.5984 18.3978 20.4828 21.828 24.0688C21.828 24.0688 18.0081 23.1333 16.371 24.7704C16.371 24.7704 15.7473 25.472 14.9677 24.7704C14.2661 24.0688 12.3952 21.7301 11.0699 23.5231C9.66667 25.3161 10.836 26.2516 9.58871 27.1091C8.26344 28.0446 6.1586 29.4478 7.25 32.9559C7.25 32.9559 8.96505 31.9424 9.12097 30.851C9.27688 29.7596 11.6156 30.2274 11.4597 29.2919C11.3038 28.2785 11.3038 24.5365 14.578 25.9397C14.578 25.9397 13.4086 27.1091 13.5645 29.2139C13.7984 31.3188 14.7339 32.3322 14.2661 33.9693C13.7984 35.6064 13.4086 37.1656 14.422 38.8806C15.4355 40.5177 15.4355 40.9854 15.5134 41.843V42.9344H15.1237L1.40323 29.136L14.9677 15.5715Z" fill="#FF5146"/>
</svg>
