<svg width="13" height="17" viewBox="0 0 13 17" fill="none" xmlns="http://www.w3.org/2000/svg">
<path d="M11.3669 12.5989L11.3672 12.5991C12.0663 12.9491 12.5 13.6517 12.5 14.437V15.3C12.5 15.3354 12.472 15.4828 12.0724 15.6877C11.7017 15.8777 11.1547 16.0375 10.4991 16.1629C9.19705 16.4119 7.60612 16.5 6.5 16.5C5.39388 16.5 3.80296 16.4119 2.50091 16.1629C1.84526 16.0375 1.29832 15.8777 0.927609 15.6877C0.527951 15.4828 0.5 15.3354 0.5 15.3V14.382C0.5 13.6283 0.909707 12.9368 1.56872 12.5768L1.56895 12.5767L4.08955 11.1979C4.08964 11.1978 4.08973 11.1978 4.08982 11.1977C4.08986 11.1977 4.0899 11.1977 4.08995 11.1977C4.49107 10.9785 4.739 10.5579 4.739 10.102V9.164V8.99519L4.63668 8.86093C4.46664 8.63781 3.96927 7.92535 3.73382 6.99173L3.69291 6.8295L3.56259 6.72456C3.41204 6.60333 3.326 6.42485 3.326 6.233V5.099C3.326 4.95082 3.38155 4.80333 3.48461 4.68603L3.609 4.54446V4.356V2.849V2.82343L3.60639 2.79799C3.59445 2.68153 3.54808 1.93326 4.07638 1.32915L4.07657 1.32893C4.52514 0.815391 5.29965 0.5 6.5 0.5C7.70035 0.5 8.47486 0.815391 8.92343 1.32893L8.92362 1.32915C9.45192 1.93326 9.40555 2.68153 9.39361 2.79799L9.391 2.82343V2.849V4.356V4.54446L9.51539 4.68603C9.61845 4.80333 9.674 4.95082 9.674 5.099V6.233C9.674 6.48072 9.53138 6.7003 9.30661 6.80395L9.11239 6.89352L9.04303 7.09584C8.8538 7.64776 8.59517 8.15663 8.27313 8.61078L8.27138 8.61327C8.20649 8.70597 8.14643 8.78603 8.09189 8.85232L7.978 8.99074V9.17V10.128C7.978 10.6029 8.24252 11.0319 8.66669 11.2449L8.66686 11.2449L11.3669 12.5989ZM8.478 9.17C8.543 9.091 8.611 9 8.681 8.9C9.032 8.405 9.312 7.853 9.516 7.258C9.915 7.074 10.174 6.679 10.174 6.233V5.099C10.174 4.826 10.072 4.562 9.891 4.356L8.478 9.17Z" stroke="#212121"/>
</svg>
