<svg width="16" height="16" viewBox="0 0 16 16" fill="none" xmlns="http://www.w3.org/2000/svg">
<path d="M14.1931 14.9704L14.1921 14.9714C13.8501 15.3142 13.3832 15.4996 12.472 15.4996C12.2895 15.4996 11.8869 15.4028 11.2898 15.1668C10.7155 14.9398 10.0197 14.608 9.27887 14.1952C7.79268 13.3671 6.16504 12.2352 4.99407 11.0127L4.98669 11.005L4.97899 10.9976C3.76153 9.8307 2.63157 8.20531 1.80415 6.72036C1.39172 5.9802 1.05997 5.28478 0.832925 4.71085C0.596801 4.11397 0.5 3.7117 0.5 3.52961C0.5 2.61881 0.685279 2.15144 1.02955 1.80716C1.24136 1.59536 1.89138 1.04856 2.42406 0.609405L2.42498 0.608647C2.5264 0.524627 2.6488 0.488532 2.77369 0.503211L2.7774 0.50362C2.90617 0.517764 3.01755 0.580388 3.09641 0.683101L3.09641 0.683103L3.09746 0.684468L5.48146 3.76747L5.48196 3.76811C5.76175 4.12873 5.79489 4.61763 5.56504 5.01551L5.56449 5.01647L5.23812 5.58439C5.238 5.58459 5.23788 5.58479 5.23777 5.58499C4.938 6.10414 4.9769 6.75007 5.34352 7.22625C5.69643 7.68554 6.25886 8.37454 6.92817 9.04489L6.92845 9.04516C7.60376 9.72048 8.30558 10.2928 8.77438 10.6533C9.25411 11.0248 9.90059 11.0598 10.4183 10.762L10.4188 10.7617L10.9858 10.4347L10.9864 10.4344C11.3818 10.2056 11.8693 10.2377 12.2346 10.5185C12.2348 10.5186 12.2349 10.5188 12.2351 10.5189L15.3171 12.9021L15.3173 12.9023C15.4206 12.9821 15.4835 13.0946 15.4979 13.2223C15.5116 13.3539 15.4746 13.4759 15.3921 13.5754L15.3915 13.5762C15.0315 14.0121 14.4243 14.7401 14.1931 14.9704ZM2.832 0.00660933C2.568 -0.0243907 2.31 0.0546093 2.106 0.223609C1.582 0.655609 0.909 1.22061 0.676 1.45361C0.202 1.92761 0 2.54761 0 3.52961C0 4.67461 2.102 8.93261 4.633 11.3586C7.067 13.8996 11.326 15.9996 12.472 15.9996C13.454 15.9996 14.074 15.7976 14.546 15.3246L2.832 0.00660933Z" stroke="#212121"/>
</svg>
