<svg width="47" height="47" viewBox="0 0 47 47" xmlns="http://www.w3.org/2000/svg">
<path d="M23.1667 0C16.875 0 16.0861 0.0266685 13.6151 0.139412C11.1493 0.251971 9.46519 0.643538 7.99153 1.21627C6.46811 1.80831 5.17617 2.60045 3.88826 3.88835C2.60036 5.17626 1.80821 6.46821 1.21617 7.99162C0.643446 9.46519 0.251879 11.1493 0.13932 13.6151C0.0265765 16.0861 0 16.875 0 23.1667C0 29.4584 0.0265765 30.2473 0.13932 32.7183C0.251879 35.1841 0.643446 36.8681 1.21617 38.3417C1.80821 39.8651 2.60036 41.1571 3.88826 42.4451C5.17617 43.733 6.46811 44.5251 7.99153 45.1172C9.46519 45.6898 11.1493 46.0815 13.6151 46.1939C16.0861 46.3067 16.875 46.3333 23.1667 46.3333C29.4584 46.3333 30.2473 46.3067 32.7183 46.1939C35.1841 46.0815 36.8681 45.6898 38.3417 45.1172C39.8651 44.5251 41.1571 43.733 42.4451 42.4451C43.733 41.1571 44.5251 39.8651 45.1172 38.3417C45.6898 36.8681 46.0815 35.1841 46.1939 32.7183C46.3067 30.2473 46.3333 29.4584 46.3333 23.1667C46.3333 16.875 46.3067 16.0861 46.1939 13.6151C46.0815 11.1493 45.6898 9.46519 45.1172 7.99162C44.5251 6.46821 43.733 5.17626 42.4451 3.88835C41.1571 2.60045 39.8651 1.80831 38.3417 1.21627C36.8681 0.643538 35.1841 0.251971 32.7183 0.139412C30.2473 0.0266685 29.4584 0 23.1667 0ZM23.1667 4.17426C29.3524 4.17426 30.0852 4.1978 32.528 4.30926C34.7867 4.41234 36.0134 4.78975 36.8297 5.10692C37.9111 5.52718 38.6828 6.02928 39.4934 6.83991C40.3041 7.65054 40.8062 8.42236 41.2264 9.50363C41.5437 10.32 41.9211 11.5466 42.0241 13.8053C42.1355 16.2482 42.1592 16.9809 42.1592 23.1667C42.1592 29.3524 42.1355 30.0852 42.0241 32.528C41.9211 34.7867 41.5437 36.0134 41.2264 36.8297C40.8062 37.9111 40.3041 38.6828 39.4934 39.4934C38.6828 40.3041 37.9111 40.8062 36.8297 41.2264C36.0134 41.5437 34.7867 41.9211 32.528 42.0241C30.0855 42.1355 29.3529 42.1592 23.1667 42.1592C16.9805 42.1592 16.2479 42.1355 13.8053 42.0241C11.5466 41.9211 10.32 41.5437 9.50363 41.2264C8.42227 40.8062 7.65054 40.3041 6.83982 39.4934C6.02919 38.6828 5.52709 37.9111 5.10692 36.8297C4.78966 36.0134 4.41225 34.7867 4.30916 32.528C4.19771 30.0852 4.17417 29.3524 4.17417 23.1667C4.17417 16.9809 4.19771 16.2482 4.30916 13.8053C4.41225 11.5466 4.78966 10.32 5.10692 9.50363C5.52709 8.42236 6.02919 7.65054 6.83982 6.83991C7.65054 6.02928 8.42227 5.52718 9.50363 5.10692C10.32 4.78975 11.5466 4.41234 13.8053 4.30926C16.2482 4.1978 16.9809 4.17426 23.1667 4.17426Z" />
<path d="M23.1669 30.9451C18.871 30.9451 15.3886 27.4627 15.3886 23.1669C15.3886 18.871 18.871 15.3886 23.1669 15.3886C27.4627 15.3886 30.9451 18.871 30.9451 23.1669C30.9451 27.4627 27.4627 30.9451 23.1669 30.9451ZM23.1669 11.1841C16.5489 11.1841 11.1841 16.5489 11.1841 23.1669C11.1841 29.7848 16.5489 35.1496 23.1669 35.1496C29.7848 35.1496 35.1496 29.7848 35.1496 23.1669C35.1496 16.5489 29.7848 11.1841 23.1669 11.1841Z" />
<path d="M38.345 10.9179C38.345 12.5356 37.1527 13.847 35.6821 13.847C34.2115 13.847 33.0193 12.5356 33.0193 10.9179C33.0193 9.30014 34.2115 7.98877 35.6821 7.98877C37.1527 7.98877 38.345 9.30014 38.345 10.9179Z" />
</svg>
