<svg width="174" height="15" viewBox="0 0 174 15" xmlns="http://www.w3.org/2000/svg">
<path d="M1.68861 1.30528V7.5321L7.61984 1.30528H9.92056L4.11598 7.36091L10.2794 14.7646H8.12642L2.99728 8.5378L1.68861 9.90728V14.7646H0V1.30528H1.68861Z"/>
<path d="M15.8386 1.30528H17.8649L22.3186 14.7646H20.5878L19.448 11.3409H14.1711L13.0313 14.7646H11.2794L15.8386 1.30528ZM14.6144 10.0143H19.0258L16.8307 3.38089L14.6144 10.0143Z"/>
<path d="M26.6709 13.2882H32.581V14.7646H25.0034V1.30528H26.6709V13.2882Z"/>
<path d="M34.8559 1.30528H43.0245V2.76034H36.5234V7.27532H42.6446V8.70899H36.5234V13.2882H43.0245V14.7646H34.8559V1.30528Z"/>
<path d="M46.7927 1.30528L50.3599 7.4893L54.0115 1.30528H55.9745L51.2042 9.24394V14.7646H49.5156V9.24394L44.8086 1.30528H46.7927Z"/>
<path d="M62.1976 1.30528C64.1958 1.30528 65.7929 1.91869 66.989 3.14551C68.1992 4.35806 68.8043 5.99144 68.8043 8.04565C68.8043 10.0856 68.1992 11.719 66.989 12.9458C65.7929 14.1583 64.1958 14.7646 62.1976 14.7646H58.2927V1.30528H62.1976ZM59.9602 13.2882H62.1976C63.6751 13.2882 64.8501 12.796 65.7226 11.8117C66.595 10.8131 67.0312 9.55064 67.0312 8.02425C67.0312 6.49786 66.588 5.24964 65.7015 4.2796C64.829 3.29529 63.6611 2.80314 62.1976 2.80314H59.9602V13.2882Z"/>
<path d="M76.9546 1.0699C78.6713 1.0699 80.0574 1.66904 81.1128 2.86733C82.1822 4.05136 82.717 5.78459 82.717 8.06705C82.717 10.3352 82.1893 12.0613 81.1339 13.2454C80.0785 14.4151 78.6854 15 76.9546 15C75.2238 15 73.8307 14.408 72.7753 13.224C71.734 12.0257 71.2133 10.2996 71.2133 8.04565C71.2133 5.77746 71.734 4.05136 72.7753 2.86733C73.8307 1.66904 75.2238 1.0699 76.9546 1.0699ZM76.9546 2.58916C75.7163 2.58916 74.7383 3.05992 74.0206 4.00143C73.303 4.94294 72.9442 6.29815 72.9442 8.06705C72.9442 9.83595 73.303 11.1769 74.0206 12.0899C74.7383 13.0029 75.7163 13.4593 76.9546 13.4593C78.1929 13.4593 79.1709 13.0029 79.8885 12.0899C80.6203 11.1769 80.9861 9.83595 80.9861 8.06705C80.9861 6.29815 80.6203 4.94294 79.8885 4.00143C79.1709 3.05992 78.1929 2.58916 76.9546 2.58916Z"/>
<path d="M90.9229 1.30528H99.0915V2.76034H92.5904V7.27532H98.7116V8.70899H92.5904V13.2882H99.0915V14.7646H90.9229V1.30528Z"/>
<path d="M102.796 1.30528L106.596 12.6248L110.416 1.30528H112.168L107.461 14.7646H105.73L101.044 1.30528H102.796Z"/>
<path d="M119.211 1.0699C120.928 1.0699 122.314 1.66904 123.369 2.86733C124.439 4.05136 124.973 5.78459 124.973 8.06705C124.973 10.3352 124.446 12.0613 123.39 13.2454C122.335 14.4151 120.942 15 119.211 15C117.48 15 116.087 14.408 115.032 13.224C113.99 12.0257 113.47 10.2996 113.47 8.04565C113.47 5.77746 113.99 4.05136 115.032 2.86733C116.087 1.66904 117.48 1.0699 119.211 1.0699ZM119.211 2.58916C117.973 2.58916 116.995 3.05992 116.277 4.00143C115.559 4.94294 115.201 6.29815 115.201 8.06705C115.201 9.83595 115.559 11.1769 116.277 12.0899C116.995 13.0029 117.973 13.4593 119.211 13.4593C120.449 13.4593 121.427 13.0029 122.145 12.0899C122.877 11.1769 123.243 9.83595 123.243 8.06705C123.243 6.29815 122.877 4.94294 122.145 4.00143C121.427 3.05992 120.449 2.58916 119.211 2.58916Z"/>
<path d="M134.805 6.50499C135.466 5.0214 136.599 4.2796 138.203 4.2796C139.075 4.2796 139.807 4.50071 140.398 4.94294C140.989 5.3709 141.418 5.97004 141.686 6.74037C142.319 5.09986 143.494 4.2796 145.211 4.2796C146.421 4.2796 147.357 4.67903 148.018 5.47789C148.679 6.27675 149.01 7.36805 149.01 8.75178V14.7646H147.364V8.75178C147.364 7.76748 147.131 7.02568 146.667 6.52639C146.217 6.0271 145.562 5.77746 144.704 5.77746C143.846 5.77746 143.177 6.1341 142.699 6.84736C142.234 7.56063 142.002 8.54494 142.002 9.80029V14.7646H140.356V8.75178C140.356 7.76748 140.124 7.02568 139.659 6.52639C139.209 6.0271 138.562 5.77746 137.717 5.77746C136.873 5.77746 136.191 6.12696 135.67 6.82596C135.149 7.52496 134.875 8.49501 134.847 9.73609V14.7646H133.179V4.53638H134.615L134.805 6.50499Z"/>
<path d="M153.032 4.51498H154.7V14.7646H153.032V4.51498ZM153.856 2.1184C153.518 2.1184 153.251 2.02568 153.054 1.84023C152.871 1.64051 152.779 1.38374 152.779 1.0699C152.779 0.741798 152.871 0.485022 153.054 0.299572C153.251 0.0998573 153.518 0 153.856 0C154.193 0 154.461 0.0998573 154.658 0.299572C154.869 0.485022 154.974 0.741798 154.974 1.0699C154.974 1.38374 154.869 1.64051 154.658 1.84023C154.461 2.02568 154.193 2.1184 153.856 2.1184Z"/>
<path d="M160.839 6.50499C161.5 5.0214 162.633 4.2796 164.237 4.2796C165.433 4.2796 166.362 4.67903 167.023 5.47789C167.699 6.27675 168.036 7.36805 168.036 8.75178V14.7646H166.39V8.75178C166.39 7.76748 166.158 7.02568 165.693 6.52639C165.243 6.0271 164.596 5.77746 163.751 5.77746C162.907 5.77746 162.225 6.12696 161.704 6.82596C161.183 7.52496 160.909 8.49501 160.881 9.73609V14.7646H159.213V4.53638H160.649L160.839 6.50499Z"/>
<path d="M172.058 4.51498H173.726V14.7646H172.058V4.51498ZM172.881 2.1184C172.544 2.1184 172.276 2.02568 172.079 1.84023C171.896 1.64051 171.805 1.38374 171.805 1.0699C171.805 0.741798 171.896 0.485022 172.079 0.299572C172.276 0.0998573 172.544 0 172.881 0C173.219 0 173.486 0.0998573 173.683 0.299572C173.894 0.485022 174 0.741798 174 1.0699C174 1.38374 173.894 1.64051 173.683 1.84023C173.486 2.02568 173.219 2.1184 172.881 2.1184Z"/>
</svg>
