<svg width="133" height="98" viewBox="0 0 133 98" fill="none" xmlns="http://www.w3.org/2000/svg">
<path d="M5.792 6.872V16.184L14.784 6.872H18.272L9.472 15.928L18.816 27H15.552L7.776 17.688L5.792 19.736V27H3.232V6.872H5.792ZM27.244 6.872H30.316L37.068 27H34.444L32.716 21.88H24.716L22.988 27H20.332L27.244 6.872ZM25.388 19.896H32.076L28.748 9.976L25.388 19.896ZM43.6663 24.792H52.6263V27H41.1383V6.872H43.6663V24.792ZM56.075 6.872H68.459V9.048H58.603V15.8H67.883V17.944H58.603V24.792H68.459V27H56.075V6.872ZM74.1718 6.872L79.5798 16.12L85.1158 6.872H88.0918L80.8598 18.744V27H78.2998V18.744L71.1638 6.872H74.1718ZM97.5263 6.872C100.556 6.872 102.977 7.78933 104.79 9.624C106.625 11.4373 107.542 13.88 107.542 16.952C107.542 20.0027 106.625 22.4453 104.79 24.28C102.977 26.0933 100.556 27 97.5263 27H91.6063V6.872H97.5263ZM94.1343 24.792H97.5263C99.7663 24.792 101.548 24.056 102.87 22.584C104.193 21.0907 104.854 19.2027 104.854 16.92C104.854 14.6373 104.182 12.7707 102.838 11.32C101.516 9.848 99.7449 9.112 97.5263 9.112H94.1343V24.792ZM119.899 6.52C122.501 6.52 124.603 7.416 126.203 9.208C127.824 10.9787 128.635 13.5707 128.635 16.984C128.635 20.376 127.835 22.9573 126.235 24.728C124.635 26.4773 122.523 27.352 119.899 27.352C117.275 27.352 115.163 26.4667 113.562 24.696C111.984 22.904 111.195 20.3227 111.195 16.952C111.195 13.56 111.984 10.9787 113.562 9.208C115.163 7.416 117.275 6.52 119.899 6.52ZM119.899 8.792C118.021 8.792 116.539 9.496 115.451 10.904C114.363 12.312 113.819 14.3387 113.819 16.984C113.819 19.6293 114.363 21.6347 115.451 23C116.539 24.3653 118.021 25.048 119.899 25.048C121.776 25.048 123.259 24.3653 124.347 23C125.456 21.6347 126.01 19.6293 126.01 16.984C126.01 14.3387 125.456 12.312 124.347 10.904C123.259 9.496 121.776 8.792 119.899 8.792ZM3.2 38.872H15.584V41.048H5.728V47.8H15.008V49.944H5.728V56.792H15.584V59H3.2V38.872ZM21.2008 38.872L26.9608 55.8L32.7528 38.872H35.4088L28.2728 59H25.6488L18.5448 38.872H21.2008ZM46.086 38.52C48.6887 38.52 50.79 39.416 52.39 41.208C54.0113 42.9787 54.822 45.5707 54.822 48.984C54.822 52.376 54.022 54.9573 52.422 56.728C50.822 58.4773 48.71 59.352 46.086 59.352C43.462 59.352 41.35 58.4667 39.75 56.696C38.1713 54.904 37.382 52.3227 37.382 48.952C37.382 45.56 38.1713 42.9787 39.75 41.208C41.35 39.416 43.462 38.52 46.086 38.52ZM46.086 40.792C44.2087 40.792 42.726 41.496 41.638 42.904C40.55 44.312 40.006 46.3387 40.006 48.984C40.006 51.6293 40.55 53.6347 41.638 55C42.726 56.3653 44.2087 57.048 46.086 57.048C47.9633 57.048 49.446 56.3653 50.534 55C51.6433 53.6347 52.198 51.6293 52.198 48.984C52.198 46.3387 51.6433 44.312 50.534 42.904C49.446 41.496 47.9633 40.792 46.086 40.792Z" fill="white"/>
<path d="M69.7265 46.648C70.7292 44.4293 72.4465 43.32 74.8785 43.32C76.2012 43.32 77.3105 43.6507 78.2065 44.312C79.1025 44.952 79.7532 45.848 80.1585 47C81.1185 44.5467 82.8998 43.32 85.5025 43.32C87.3372 43.32 88.7558 43.9173 89.7585 45.112C90.7612 46.3067 91.2625 47.9387 91.2625 50.008V59H88.7665V50.008C88.7665 48.536 88.4145 47.4267 87.7105 46.68C87.0278 45.9333 86.0358 45.56 84.7345 45.56C83.4332 45.56 82.4198 46.0933 81.6945 47.16C80.9905 48.2267 80.6385 49.6987 80.6385 51.576V59H78.1425V50.008C78.1425 48.536 77.7905 47.4267 77.0865 46.68C76.4038 45.9333 75.4225 45.56 74.1425 45.56C72.8625 45.56 71.8278 46.0827 71.0385 47.128C70.2492 48.1733 69.8332 49.624 69.7905 51.48V59H67.2625V43.704H69.4385L69.7265 46.648ZM97.3608 43.672H99.8888V59H97.3608V43.672ZM98.6088 40.088C98.0968 40.088 97.6914 39.9493 97.3928 39.672C97.1154 39.3733 96.9768 38.9893 96.9768 38.52C96.9768 38.0293 97.1154 37.6453 97.3928 37.368C97.6914 37.0693 98.0968 36.92 98.6088 36.92C99.1208 36.92 99.5261 37.0693 99.8248 37.368C100.145 37.6453 100.305 38.0293 100.305 38.52C100.305 38.9893 100.145 39.3733 99.8248 39.672C99.5261 39.9493 99.1208 40.088 98.6088 40.088ZM109.195 46.648C110.198 44.4293 111.915 43.32 114.347 43.32C116.161 43.32 117.569 43.9173 118.571 45.112C119.595 46.3067 120.107 47.9387 120.107 50.008V59H117.611V50.008C117.611 48.536 117.259 47.4267 116.555 46.68C115.873 45.9333 114.891 45.56 113.611 45.56C112.331 45.56 111.297 46.0827 110.507 47.128C109.718 48.1733 109.302 49.624 109.259 51.48V59H106.731V43.704H108.907L109.195 46.648ZM126.205 43.672H128.733V59H126.205V43.672ZM127.453 40.088C126.941 40.088 126.535 39.9493 126.237 39.672C125.959 39.3733 125.821 38.9893 125.821 38.52C125.821 38.0293 125.959 37.6453 126.237 37.368C126.535 37.0693 126.941 36.92 127.453 36.92C127.965 36.92 128.37 37.0693 128.669 37.368C128.989 37.6453 129.149 38.0293 129.149 38.52C129.149 38.9893 128.989 39.3733 128.669 39.672C128.37 39.9493 127.965 40.088 127.453 40.088Z" fill="#FFC500"/>
<path d="M7.30163 76.6C8.38963 76.6 9.24563 76.86 9.86963 77.38C10.4936 77.9 10.8056 78.616 10.8056 79.528C10.8056 80.44 10.4936 81.156 9.86963 81.676C9.24563 82.196 8.38963 82.456 7.30163 82.456H5.22563V85H4.02563V76.6H7.30163ZM7.26563 81.412C8.02563 81.412 8.60563 81.252 9.00563 80.932C9.40563 80.604 9.60563 80.136 9.60563 79.528C9.60563 78.92 9.40563 78.456 9.00563 78.136C8.60563 77.808 8.02563 77.644 7.26563 77.644H5.22563V81.412H7.26563ZM15.1012 85.072C14.4692 85.072 13.9012 84.932 13.3972 84.652C12.8932 84.372 12.4972 83.988 12.2092 83.5C11.9292 83.004 11.7892 82.444 11.7892 81.82C11.7892 81.196 11.9292 80.64 12.2092 80.152C12.4972 79.656 12.8932 79.272 13.3972 79C13.9012 78.72 14.4692 78.58 15.1012 78.58C15.7332 78.58 16.2972 78.72 16.7932 79C17.2972 79.272 17.6892 79.656 17.9692 80.152C18.2572 80.64 18.4012 81.196 18.4012 81.82C18.4012 82.444 18.2572 83.004 17.9692 83.5C17.6892 83.988 17.2972 84.372 16.7932 84.652C16.2972 84.932 15.7332 85.072 15.1012 85.072ZM15.1012 84.064C15.5092 84.064 15.8732 83.972 16.1932 83.788C16.5212 83.596 16.7772 83.332 16.9612 82.996C17.1452 82.652 17.2372 82.26 17.2372 81.82C17.2372 81.38 17.1452 80.992 16.9612 80.656C16.7772 80.312 16.5212 80.048 16.1932 79.864C15.8732 79.68 15.5092 79.588 15.1012 79.588C14.6932 79.588 14.3252 79.68 13.9972 79.864C13.6772 80.048 13.4212 80.312 13.2292 80.656C13.0452 80.992 12.9532 81.38 12.9532 81.82C12.9532 82.26 13.0452 82.652 13.2292 82.996C13.4212 83.332 13.6772 83.596 13.9972 83.788C14.3252 83.972 14.6932 84.064 15.1012 84.064ZM29.4426 78.64L27.0666 85H25.9626L24.1266 80.176L22.2666 85H21.1626L18.7986 78.64H19.8906L21.7386 83.704L23.6586 78.64H24.6306L26.5146 83.728L28.4106 78.64H29.4426ZM36.1838 81.856C36.1838 81.944 36.1758 82.06 36.1598 82.204H30.9998C31.0718 82.764 31.3158 83.216 31.7318 83.56C32.1558 83.896 32.6798 84.064 33.3038 84.064C34.0638 84.064 34.6758 83.808 35.1398 83.296L35.7758 84.04C35.4878 84.376 35.1278 84.632 34.6958 84.808C34.2718 84.984 33.7958 85.072 33.2678 85.072C32.5958 85.072 31.9998 84.936 31.4798 84.664C30.9598 84.384 30.5558 83.996 30.2678 83.5C29.9878 83.004 29.8478 82.444 29.8478 81.82C29.8478 81.204 29.9838 80.648 30.2558 80.152C30.5358 79.656 30.9158 79.272 31.3958 79C31.8838 78.72 32.4318 78.58 33.0398 78.58C33.6478 78.58 34.1878 78.72 34.6598 79C35.1398 79.272 35.5118 79.656 35.7758 80.152C36.0478 80.648 36.1838 81.216 36.1838 81.856ZM33.0398 79.552C32.4878 79.552 32.0238 79.72 31.6478 80.056C31.2798 80.392 31.0638 80.832 30.9998 81.376H35.0798C35.0158 80.84 34.7958 80.404 34.4198 80.068C34.0518 79.724 33.5918 79.552 33.0398 79.552ZM38.8874 79.708C39.0874 79.34 39.3834 79.06 39.7754 78.868C40.1674 78.676 40.6434 78.58 41.2034 78.58V79.696C41.1394 79.688 41.0514 79.684 40.9394 79.684C40.3154 79.684 39.8234 79.872 39.4634 80.248C39.1114 80.616 38.9354 81.144 38.9354 81.832V85H37.7834V78.64H38.8874V79.708ZM48.3127 81.856C48.3127 81.944 48.3047 82.06 48.2887 82.204H43.1287C43.2007 82.764 43.4447 83.216 43.8607 83.56C44.2847 83.896 44.8087 84.064 45.4327 84.064C46.1927 84.064 46.8047 83.808 47.2687 83.296L47.9047 84.04C47.6167 84.376 47.2567 84.632 46.8247 84.808C46.4007 84.984 45.9247 85.072 45.3967 85.072C44.7247 85.072 44.1287 84.936 43.6087 84.664C43.0887 84.384 42.6847 83.996 42.3967 83.5C42.1167 83.004 41.9767 82.444 41.9767 81.82C41.9767 81.204 42.1127 80.648 42.3847 80.152C42.6647 79.656 43.0447 79.272 43.5247 79C44.0127 78.72 44.5607 78.58 45.1687 78.58C45.7767 78.58 46.3167 78.72 46.7887 79C47.2687 79.272 47.6407 79.656 47.9047 80.152C48.1767 80.648 48.3127 81.216 48.3127 81.856ZM45.1687 79.552C44.6167 79.552 44.1527 79.72 43.7767 80.056C43.4087 80.392 43.1927 80.832 43.1287 81.376H47.2087C47.1447 80.84 46.9247 80.404 46.5487 80.068C46.1807 79.724 45.7207 79.552 45.1687 79.552ZM55.9123 76.096V85H54.8083V83.992C54.5523 84.344 54.2283 84.612 53.8363 84.796C53.4443 84.98 53.0123 85.072 52.5403 85.072C51.9243 85.072 51.3723 84.936 50.8843 84.664C50.3963 84.392 50.0123 84.012 49.7323 83.524C49.4603 83.028 49.3243 82.46 49.3243 81.82C49.3243 81.18 49.4603 80.616 49.7323 80.128C50.0123 79.64 50.3963 79.26 50.8843 78.988C51.3723 78.716 51.9243 78.58 52.5403 78.58C52.9963 78.58 53.4163 78.668 53.8003 78.844C54.1843 79.012 54.5043 79.264 54.7603 79.6V76.096H55.9123ZM52.6363 84.064C53.0363 84.064 53.4003 83.972 53.7283 83.788C54.0563 83.596 54.3123 83.332 54.4963 82.996C54.6803 82.652 54.7723 82.26 54.7723 81.82C54.7723 81.38 54.6803 80.992 54.4963 80.656C54.3123 80.312 54.0563 80.048 53.7283 79.864C53.4003 79.68 53.0363 79.588 52.6363 79.588C52.2283 79.588 51.8603 79.68 51.5323 79.864C51.2123 80.048 50.9563 80.312 50.7643 80.656C50.5803 80.992 50.4883 81.38 50.4883 81.82C50.4883 82.26 50.5803 82.652 50.7643 82.996C50.9563 83.332 51.2123 83.596 51.5323 83.788C51.8603 83.972 52.2283 84.064 52.6363 84.064ZM47.213 88.58C47.757 88.58 48.241 88.692 48.665 88.916C49.089 89.132 49.421 89.448 49.661 89.864C49.901 90.272 50.021 90.756 50.021 91.316C50.021 92.036 49.865 92.68 49.553 93.248C49.241 93.816 48.809 94.264 48.257 94.592C47.713 94.912 47.101 95.072 46.421 95.072C45.861 95.072 45.381 94.968 44.981 94.76C44.589 94.552 44.293 94.248 44.093 93.848L43.853 95H42.761L44.537 86.096H45.689L45.029 89.372C45.621 88.844 46.349 88.58 47.213 88.58ZM46.373 94.064C46.845 94.064 47.269 93.952 47.645 93.728C48.021 93.496 48.317 93.176 48.533 92.768C48.749 92.36 48.857 91.896 48.857 91.376C48.857 90.808 48.693 90.368 48.365 90.056C48.037 89.744 47.569 89.588 46.961 89.588C46.489 89.588 46.061 89.704 45.677 89.936C45.301 90.16 45.005 90.476 44.789 90.884C44.581 91.292 44.477 91.756 44.477 92.276C44.477 92.836 44.641 93.276 44.969 93.596C45.305 93.908 45.773 94.064 46.373 94.064ZM57.6529 88.64L53.1409 95.696C52.7329 96.336 52.3449 96.78 51.9769 97.028C51.6089 97.276 51.1729 97.4 50.6689 97.4C50.3569 97.4 50.0529 97.348 49.7569 97.244C49.4609 97.148 49.2329 97.012 49.0729 96.836L49.6729 95.984C49.9609 96.272 50.3209 96.416 50.7529 96.416C51.0249 96.416 51.2649 96.344 51.4729 96.2C51.6809 96.056 51.8969 95.812 52.1209 95.468L52.4449 94.964L50.9089 88.64H52.0609L53.2849 93.728L56.4889 88.64H57.6529Z" fill="white"/>
<path d="M65.148 81.9235C65.148 80.0711 65.111 78.55 65 77.078H67.8976L68.0825 80.0343H68.1565C69.0566 78.3292 71.1404 76.6609 74.1242 76.6609C76.6149 76.6609 80.4866 78.1452 80.4866 84.291V94.9877H77.2068V84.659C77.2068 81.7763 76.1217 79.3597 73.0392 79.3597C70.8814 79.3597 69.2046 80.8808 68.6497 82.6963C68.5017 83.1011 68.4278 83.6531 68.4278 84.2174V94.9877H65.148V81.9235ZM86.1461 72.0363C86.1831 73.1526 85.3693 74.0358 84.0623 74.0358C82.9033 74.0358 82.0895 73.1526 82.0895 72.0363C82.0895 70.8832 82.9402 70 84.1363 70C85.3569 70 86.1461 70.8832 86.1461 72.0363ZM82.4964 94.9877V77.078H85.7762V95H82.4964V94.9877ZM91.4603 77.078L94.025 80.9176C94.6908 81.9112 95.258 82.8435 95.8498 83.8371H95.9608C96.5526 82.7576 97.1568 81.8376 97.7487 80.8808L100.276 77.0658H103.815L97.6747 85.7385L104 95H100.276L97.6377 90.9642C96.9349 89.9215 96.3307 88.9279 95.7019 87.8484H95.6279C95.036 88.9279 94.3949 89.8847 93.7291 90.9642L91.1274 95H87.5147L93.914 85.8489L87.8106 77.078H91.4603Z" fill="white"/>
</svg>
