<svg width="202" height="84" viewBox="0 0 202 84" fill="none" xmlns="http://www.w3.org/2000/svg">
<path d="M4.15713 0.559663V15.3652L18.5788 0.559663H24.1729L10.0592 14.9582L25.0454 32.5621H19.8105L7.33913 17.7565L4.15713 21.0127V32.5621H0.0513227V0.559663H4.15713Z" fill="white"/>
<path d="M38.5625 0.559663H43.4895L54.3185 32.5621H50.1101L47.3386 24.4216H34.508L31.7366 32.5621H27.4768L38.5625 0.559663ZM35.5858 21.2671H46.3122L40.9747 5.49485L35.5858 21.2671Z" fill="white"/>
<path d="M64.901 29.0515H79.2713V32.5621H60.8465V0.559663H64.901V29.0515Z" fill="white"/>
<path d="M84.8025 0.559663H104.664V4.01938H88.857V14.7547H103.741V18.1635H88.857V29.0515H104.664V32.5621H84.8025V0.559663Z" fill="white"/>
<path d="M113.827 0.559663L122.5 15.2635L131.379 0.559663H136.152L124.553 19.4355V32.5621H120.447V19.4355L109.002 0.559663H113.827Z" fill="white"/>
<path d="M151.283 0.559663C156.142 0.559663 160.025 2.01817 162.934 4.93519C165.876 7.81829 167.347 11.702 167.347 16.5863C167.347 21.4367 165.876 25.3204 162.934 28.2374C160.025 31.1205 156.142 32.5621 151.283 32.5621H141.789V0.559663H151.283ZM145.843 29.0515H151.283C154.876 29.0515 157.733 27.8813 159.854 25.5409C161.975 23.1666 163.036 20.1647 163.036 16.5354C163.036 12.9061 161.958 9.93822 159.803 7.63174C157.681 5.29134 154.842 4.12114 151.283 4.12114H145.843V29.0515Z" fill="white"/>
<path d="M187.165 0C191.339 0 194.709 1.42459 197.275 4.27377C199.875 7.08904 201.176 11.2102 201.176 16.6372C201.176 22.0303 199.893 26.1345 197.326 28.9497C194.76 31.7311 191.373 33.1217 187.165 33.1217C182.956 33.1217 179.569 31.7141 177.003 28.8988C174.471 26.0497 173.205 21.9455 173.205 16.5863C173.205 11.1932 174.471 7.08904 177.003 4.27377C179.569 1.42459 182.956 0 187.165 0ZM187.165 3.61236C184.154 3.61236 181.776 4.73168 180.031 6.97032C178.286 9.20897 177.413 12.4313 177.413 16.6372C177.413 20.8431 178.286 24.0315 180.031 26.2023C181.776 28.3731 184.154 29.4585 187.165 29.4585C190.175 29.4585 192.553 28.3731 194.298 26.2023C196.078 24.0315 196.967 20.8431 196.967 16.6372C196.967 12.4313 196.078 9.20897 194.298 6.97032C192.553 4.73168 190.175 3.61236 187.165 3.61236Z" fill="white"/>
<path d="M0 51.4379H19.8618V54.8976H4.05448V65.6329H18.938V69.0418H4.05448V79.9297H19.8618V83.4403H0V51.4379Z" fill="white"/>
<path d="M28.8701 51.4379L38.1082 78.3525L47.3976 51.4379H51.6574L40.2124 83.4403H36.004L24.6104 51.4379H28.8701Z" fill="white"/>
<path d="M68.7819 50.8783C72.9561 50.8783 76.3263 52.3029 78.8924 55.152C81.4927 57.9673 82.7929 62.0884 82.7929 67.5154C82.7929 72.9085 81.5099 77.0127 78.9437 79.828C76.3776 82.6093 72.9903 84 68.7819 84C64.5734 84 61.1861 82.5924 58.62 79.7771C56.0881 76.9279 54.8221 72.8237 54.8221 67.4646C54.8221 62.0715 56.0881 57.9673 58.62 55.152C61.1861 52.3029 64.5734 50.8783 68.7819 50.8783ZM68.7819 54.4906C65.7709 54.4906 63.393 55.6099 61.648 57.8486C59.9031 60.0872 59.0306 63.3095 59.0306 67.5154C59.0306 71.7214 59.9031 74.9098 61.648 77.0806C63.393 79.2514 65.7709 80.3368 68.7819 80.3368C71.7928 80.3368 74.1707 79.2514 75.9157 77.0806C77.6949 74.9098 78.5845 71.7214 78.5845 67.5154C78.5845 63.3095 77.6949 60.0872 75.9157 57.8486C74.1707 55.6099 71.7928 54.4906 68.7819 54.4906Z" fill="white"/>
<path d="M106.697 63.8013C108.305 60.2738 111.06 58.51 114.96 58.51C117.081 58.51 118.861 59.0357 120.298 60.0872C121.735 61.1048 122.778 62.5294 123.428 64.361C124.968 60.4603 127.825 58.51 131.999 58.51C134.942 58.51 137.217 59.4597 138.825 61.3592C140.433 63.2586 141.237 65.8534 141.237 69.1436V83.4403H137.234V69.1436C137.234 66.8032 136.67 65.0394 135.54 63.8522C134.446 62.6651 132.855 62.0715 130.767 62.0715C128.68 62.0715 127.055 62.9194 125.892 64.6154C124.763 66.3113 124.198 68.6517 124.198 71.6366V83.4403H120.195V69.1436C120.195 66.8032 119.63 65.0394 118.501 63.8522C117.407 62.6651 115.833 62.0715 113.78 62.0715C111.727 62.0715 110.067 62.9025 108.801 64.5645C107.535 66.2265 106.868 68.533 106.8 71.484V83.4403H102.745V59.1205H106.235L106.697 63.8013Z" fill="#FFC500"/>
<path d="M151.018 59.0697H155.072V83.4403H151.018V59.0697ZM153.019 53.3713C152.198 53.3713 151.548 53.1508 151.069 52.7099C150.624 52.235 150.402 51.6245 150.402 50.8783C150.402 50.0981 150.624 49.4876 151.069 49.0466C151.548 48.5718 152.198 48.3344 153.019 48.3344C153.841 48.3344 154.491 48.5718 154.97 49.0466C155.483 49.4876 155.74 50.0981 155.74 50.8783C155.74 51.6245 155.483 52.235 154.97 52.7099C154.491 53.1508 153.841 53.3713 153.019 53.3713Z" fill="#FFC500"/>
<path d="M169.998 63.8013C171.606 60.2738 174.361 58.51 178.261 58.51C181.17 58.51 183.428 59.4597 185.036 61.3592C186.678 63.2586 187.499 65.8534 187.499 69.1436V83.4403H183.496V69.1436C183.496 66.8032 182.932 65.0394 181.803 63.8522C180.708 62.6651 179.134 62.0715 177.081 62.0715C175.028 62.0715 173.369 62.9025 172.103 64.5645C170.837 66.2265 170.169 68.533 170.101 71.484V83.4403H166.047V59.1205H169.536L169.998 63.8013Z" fill="#FFC500"/>
<path d="M197.278 59.0697H201.333V83.4403H197.278V59.0697ZM199.28 53.3713C198.459 53.3713 197.809 53.1508 197.33 52.7099C196.885 52.235 196.662 51.6245 196.662 50.8783C196.662 50.0981 196.885 49.4876 197.33 49.0466C197.809 48.5718 198.459 48.3344 199.28 48.3344C200.101 48.3344 200.751 48.5718 201.23 49.0466C201.743 49.4876 202 50.0981 202 50.8783C202 51.6245 201.743 52.235 201.23 52.7099C200.751 53.1508 200.101 53.3713 199.28 53.3713Z" fill="#FFC500"/>
</svg>
