<svg width="19" height="17" viewBox="0 0 19 17" stroke="none" fill="none" xmlns="http://www.w3.org/2000/svg">
<path d="M16.8889 10.625C16.8889 10.625 14.7778 13.7013 14.7778 14.875C14.7778 16.0487 15.7232 17 16.8889 17C18.0547 17 19.0001 16.0487 19.0001 14.875C19.0001 13.7013 16.8889 10.625 16.8889 10.625ZM16.5799 7.20707L9.72892 0.311113C9.52275 0.103594 9.25259 0 8.98243 0C8.71228 0 8.44212 0.103594 8.23628 0.311113L5.54525 3.01982L2.70249 0.158047C2.49633 -0.0494726 2.16217 -0.0494726 1.95634 0.158047L1.21019 0.909102C1.00435 1.11662 1.00435 1.45297 1.21019 1.66016L4.05328 4.5216L0.927494 7.66793C-0.309165 8.91238 -0.309165 10.9305 0.927494 12.1753L4.79317 16.0663C5.41133 16.6886 6.2218 17 7.03195 17C7.84242 17 8.65257 16.6889 9.27073 16.0663L16.5795 8.70951C16.9919 8.29447 16.9919 7.62211 16.5799 7.20707ZM12.7462 9.5635H2.17471C2.21957 9.436 2.29247 9.29854 2.4198 9.1707L2.85357 8.73408L5.54558 6.02437L7.47859 7.97008C7.89058 8.38478 8.55889 8.38478 8.97089 7.97008C9.38289 7.55537 9.38289 6.88268 8.97089 6.46797L7.03789 4.52227L8.98243 2.56494L14.3407 7.95846L12.7462 9.5635Z" stroke="transparent" fill="white"/>
</svg>
