<svg width="13" height="17" viewBox="0 0 13 17" xmlns="http://www.w3.org/2000/svg">
<path d="M6.84193 8.50332C7.0112 7.97207 7.00781 6.94609 6.90964 6.94609C6.62526 6.94609 6.65234 8.17129 6.84193 8.50332ZM6.89948 10.0705C7.16016 10.7412 7.48516 11.5082 7.86094 12.1523C7.24141 11.9199 6.54062 11.5813 5.73151 11.4252C6.16146 11.1064 6.57448 10.6482 6.89948 10.0705ZM10.0852 14.2143C10.0852 14.2408 9.63828 14.035 8.90365 12.8795C9.13047 13.0887 9.8888 13.693 10.0852 14.2143ZM4.60417 5.3125H0V16.2031C0 16.6447 0.362239 17 0.8125 17H12.1875C12.6378 17 13 16.6447 13 16.2031V0.796875C13 0.355273 12.6378 0 12.1875 0H5.41667V4.51562C5.41667 4.95391 5.05104 5.3125 4.60417 5.3125ZM4.875 11.0168C5.55208 10.6117 6.00234 10.0539 6.32057 9.23047C6.16823 8.61621 5.92786 7.6832 6.11068 7.09883C6.26979 6.12266 7.54609 6.21895 7.72891 6.87305C7.89818 7.48066 7.74245 8.33731 7.45469 9.42969C7.8474 10.3461 8.4263 11.5746 8.83594 12.2785C8.83932 12.2785 8.83932 12.2818 8.84271 12.2818C9.76016 12.7434 11.3344 13.7594 10.6878 14.5396C10.4982 14.7688 10.1461 14.8717 9.9599 14.8717C9.35391 14.8717 8.7513 14.274 7.89141 12.8197C7.01797 12.5375 6.0599 12.1855 5.21693 12.0494C4.48229 12.4412 3.6224 12.6969 3.05026 12.6969C2.06172 12.6969 1.99401 11.6344 2.38333 11.2559C2.85391 10.8043 4.22161 10.9338 4.875 11.0168ZM0.236979 3.48633L3.55469 0.232422C3.70703 0.0830078 3.91354 0 4.13021 0H4.33333V4.25H0V4.04746C0 3.83828 0.0846348 3.63574 0.236979 3.48633ZM2.74557 11.9631C2.60677 11.8734 2.83021 11.568 4.19453 11.6643C2.93854 12.1889 2.74557 11.9631 2.74557 11.9631Z" />
</svg>
