<svg width="46" height="47" viewBox="0 0 46 47" xmlns="http://www.w3.org/2000/svg">
<path fill-rule="evenodd" clip-rule="evenodd" d="M16.5672 12.0129C16.1359 10.9348 15.7766 10.8989 15.0938 10.8629C14.8781 10.8629 14.5906 10.827 14.3391 10.827C13.4766 10.827 12.5422 11.0786 12.0031 11.6536C11.3203 12.3364 9.66719 13.9536 9.66719 17.2598C9.66719 20.5661 12.075 23.7645 12.3984 24.1958C12.7219 24.627 17.1063 31.527 23.8625 34.2942C29.1453 36.4864 30.7266 36.2708 31.9125 36.0192C33.6734 35.6239 35.8656 34.3301 36.4406 32.7848C36.9797 31.2036 36.9797 29.8739 36.8359 29.5864C36.6562 29.2989 36.225 29.1551 35.5422 28.7958C34.8594 28.4723 31.5891 26.8192 30.9422 26.6036C30.3312 26.3879 29.7563 26.4598 29.2891 27.1067C28.6422 28.0051 27.9953 28.9395 27.4922 29.4786C27.0969 29.9098 26.4141 29.9817 25.875 29.7301C25.1203 29.4067 23.0359 28.6879 20.4844 26.3879C18.5078 24.627 17.1422 22.3989 16.7469 21.752C16.3516 21.0692 16.7109 20.6739 17.0344 20.3145C17.3578 19.8833 17.6812 19.5958 18.0406 19.2004C18.3641 18.8051 18.5797 18.5895 18.7953 18.1583C19.0109 17.727 18.8672 17.2598 18.6875 16.9004C18.4719 16.6489 17.1422 13.3426 16.5672 12.0129ZM23 0.333252C10.3141 0.333252 0 10.6473 0 23.3333C0 28.3645 1.61719 33.0364 4.38438 36.8098L1.50937 45.3629L10.35 42.5239C13.9797 44.9317 18.3281 46.3333 23 46.3333C35.6859 46.3333 46 36.0192 46 23.3333C46 10.6473 35.6859 0.333252 23 0.333252Z" />
</svg>
