<svg width="72" height="50" viewBox="0 0 72 50" fill="none" xmlns="http://www.w3.org/2000/svg">
<path d="M69.9361 42.1923C69.1147 45.2657 66.6948 47.6858 63.6213 48.5071C58.0504 50 35.7142 50 35.7142 50C35.7142 50 13.378 50 7.80697 48.5071C4.73426 47.6858 2.31363 45.2657 1.4922 42.1923C0 36.6219 0 24.9996 0 24.9996C0 24.9996 0 13.3773 1.4922 7.80746C2.31363 4.73404 4.73426 2.3134 7.80697 1.4921C13.378 -0.000244141 35.7142 -0.000240326 35.7142 -0.000240326C35.7142 -0.000240326 58.0504 -0.000244141 63.6213 1.4921C66.6948 2.3134 69.1147 4.73404 69.9361 7.80746C71.429 13.3773 71.429 24.9996 71.429 24.9996C71.429 24.9996 71.429 36.6219 69.9361 42.1923Z" fill="#FF5146"/>
<path d="M28.571 14.2886L47.1284 25.0031L28.571 35.7177V14.2886Z" fill="white"/>
</svg>
